<svg xmlns="http://www.w3.org/2000/svg" xmlns:xlink="http://www.w3.org/1999/xlink" width="793.385" height="755.309" viewBox="0 0 793.385 755.309"><defs><style>.a{fill:#e0e0e0;}.b,.k,.l,.m,.n{opacity:0.5;}.c{fill:url(#a);}.d{fill:#fafafa;}.e{fill:url(#b);}.f{fill:url(#c);}.g{fill:#fff;}.h{fill:url(#d);}.i{fill:url(#f);}.j,.n{fill:#47e6b1;}.k{fill:#4d8af0;}.l{fill:#fdd835;}.m{fill:#f55f44;}</style><linearGradient id="a" x1="0.509" y1="0.997" x2="0.509" y2="-0.003" gradientUnits="objectBoundingBox"><stop offset="0" stop-color="gray" stop-opacity="0.251"/><stop offset="0.54" stop-color="gray" stop-opacity="0.122"/><stop offset="1" stop-color="gray" stop-opacity="0.102"/></linearGradient><linearGradient id="b" x1="0.813" y1="0.841" x2="0.813" y2="-0.159" xlink:href="#a"/><linearGradient id="c" x1="1.78" y1="0.849" x2="1.78" y2="-0.151" xlink:href="#a"/><linearGradient id="d" x1="0.5" y1="1" x2="0.5" y2="0" xlink:href="#a"/><linearGradient id="f" x1="0.5" y1="0.999" x2="0.5" y2="-0.001" xlink:href="#a"/></defs><rect class="a" width="422.749" height="584.103" transform="translate(66.864 131.065) rotate(-12.11)"/><g class="b" transform="translate(75.925 53.531)"><rect class="c" width="408.461" height="564.359" transform="translate(0 85.691) rotate(-12.11)"/></g><rect class="d" width="398.062" height="551.89" transform="translate(81.876 142.193) rotate(-12.11)"/><rect class="e" width="197.474" height="47.835" transform="translate(175.429 97.65) rotate(-12.11)"/><path class="f" d="M460.2,91.88c-14.907,3.2-24.338,18.167-21.059,33.422s18.012,25.044,32.89,21.843,24.338-18.167,21.059-33.422S475.1,88.678,460.2,91.88Zm9.354,43.627A16.309,16.309,0,1,1,481.7,116.16a16.116,16.116,0,0,1-12.15,19.347Z" transform="translate(-198.038 -60.625)"/><rect class="g" width="193.314" height="45.726" transform="translate(177.032 95.208) rotate(-12.11)"/><path class="g" d="M460.209,91.88a27.018,27.018,0,1,0,32.087,20.75,27.018,27.018,0,0,0-32.087-20.75Zm8.938,41.692a15.594,15.594,0,1,1,11.976-18.515,15.594,15.594,0,0,1-11.976,18.515Z" transform="translate(-198.05 -60.625)"/><rect class="a" width="422.748" height="584.1" transform="translate(249.468 113.092)"/><g class="b" transform="translate(256.616 122.969)"><rect class="h" width="408.46" height="564.357"/></g><rect class="g" width="398.061" height="551.888" transform="translate(261.811 127.128)"/><rect class="h" width="197.473" height="47.835" transform="translate(362.627 103.196)"/><path class="i" d="M665.928,118c-15.245,0-27.608,12.653-27.608,28.266s12.363,28.266,27.608,28.266,27.608-12.653,27.608-28.266S681.173,118,665.928,118Zm0,44.575a16.309,16.309,0,1,1,15.922-16.309A16.116,16.116,0,0,1,665.928,162.5Z" transform="translate(-204.564 -61.498)"/><rect class="g" width="193.314" height="45.726" transform="translate(364.707 101.145)"/><path class="g" d="M665.948,118a27.018,27.018,0,1,0,27.018,27.018A27.018,27.018,0,0,0,665.948,118Zm0,42.611a15.628,15.628,0,1,0,0-.048Z" transform="translate(-204.584 -61.498)"/><g class="b" transform="translate(6.278 712.979)"><rect class="j" width="3.637" height="20.633" transform="translate(8.493)"/><rect class="j" width="3.637" height="20.633" transform="translate(20.633 8.503) rotate(90)"/></g><g class="b" transform="translate(428.252)"><rect class="j" width="3.637" height="20.633" transform="translate(8.493)"/><rect class="j" width="3.637" height="20.633" transform="translate(20.633 8.493) rotate(90)"/></g><path class="k" d="M960.5,831.871a4.459,4.459,0,0,1-2.486-5.388,2.15,2.15,0,0,0,.1-.493h0a2.235,2.235,0,0,0-4.015-1.48h0a2.147,2.147,0,0,0-.252.435,4.46,4.46,0,0,1-5.388,2.486,2.137,2.137,0,0,0-.493-.1h0a2.235,2.235,0,0,0-1.48,4.014h0a2.15,2.15,0,0,0,.435.252,4.46,4.46,0,0,1,2.486,5.388,2.148,2.148,0,0,0-.1.493h0a2.235,2.235,0,0,0,4.015,1.48h0a2.15,2.15,0,0,0,.252-.435,4.459,4.459,0,0,1,5.388-2.486,2.159,2.159,0,0,0,.493.1h0a2.235,2.235,0,0,0,1.48-4.015h0a2.148,2.148,0,0,0-.435-.252Z" transform="translate(-214.599 -84.542)"/><path class="l" d="M326.087,626.811a4.46,4.46,0,0,1-2.486-5.388,2.147,2.147,0,0,0,.1-.493h0a2.235,2.235,0,0,0-4.014-1.48h0a2.152,2.152,0,0,0-.252.435,4.459,4.459,0,0,1-5.388,2.486,2.147,2.147,0,0,0-.493-.1h0a2.235,2.235,0,0,0-1.48,4.014h0a2.142,2.142,0,0,0,.435.252,4.459,4.459,0,0,1,2.486,5.388,2.146,2.146,0,0,0-.1.493h0a2.235,2.235,0,0,0,4.014,1.48h0a2.15,2.15,0,0,0,.252-.435,4.46,4.46,0,0,1,5.388-2.486,2.144,2.144,0,0,0,.493.1h0a2.235,2.235,0,0,0,1.48-4.015h0a2.151,2.151,0,0,0-.435-.251Z" transform="translate(-193.88 -77.845)"/><path class="l" d="M854.5,127.491a4.459,4.459,0,0,1-2.486-5.388,2.15,2.15,0,0,0,.1-.493h0a2.235,2.235,0,0,0-4.015-1.48h0a2.154,2.154,0,0,0-.251.435,4.46,4.46,0,0,1-5.388,2.486,2.147,2.147,0,0,0-.493-.1h0a2.235,2.235,0,0,0-1.48,4.014h0a2.148,2.148,0,0,0,.435.252,4.46,4.46,0,0,1,2.486,5.388,2.144,2.144,0,0,0-.1.493h0a2.235,2.235,0,0,0,4.015,1.48h0a2.15,2.15,0,0,0,.251-.435,4.459,4.459,0,0,1,5.388-2.486,2.149,2.149,0,0,0,.493.1h0a2.235,2.235,0,0,0,1.48-4.014h0a2.148,2.148,0,0,0-.435-.252Z" transform="translate(-211.137 -61.538)"/><circle class="m" cx="7.284" cy="7.284" r="7.284" transform="translate(778.817 296.916)"/><circle class="m" cx="7.284" cy="7.284" r="7.284" transform="translate(215.911 714.982)"/><circle class="m" cx="7.284" cy="7.284" r="7.284" transform="translate(704.012 454.361)"/><circle class="k" cx="7.284" cy="7.284" r="7.284" transform="translate(77.01 85.919)"/><circle class="n" cx="7.284" cy="7.284" r="7.284" transform="translate(0 284.621)"/></svg>