<svg xmlns="http://www.w3.org/2000/svg" xmlns:xlink="http://www.w3.org/1999/xlink" width="709.827" height="545.052" viewBox="0 0 709.827 545.052"><defs><style>.a,.c{fill:#fff;}.a,.e,.r{opacity:0.1;}.b{fill:none;stroke:#535461;stroke-miterlimit:10;stroke-width:2px;}.d{opacity:0.25;}.f{fill:#ffd037;}.g{fill:#a8a8a8;}.h,.k{opacity:0.2;}.i{fill:url(#a);}.j,.k{fill:#5a5773;}.l{fill:url(#b);}.m{fill:#efb7b9;}.n{fill:#ff6484;}.o{fill:#444053;}.p{fill:#a1616a;}.q{fill:#925978;}</style><linearGradient id="a" x1="0.5" y1="1" x2="0.5" gradientUnits="objectBoundingBox"><stop offset="0" stop-color="gray" stop-opacity="0.251"/><stop offset="0.54" stop-color="gray" stop-opacity="0.122"/><stop offset="1" stop-color="gray" stop-opacity="0.102"/></linearGradient><linearGradient id="b" x1="0.5" x2="0.5" xlink:href="#a"/></defs><g transform="translate(0.01 0.019)"><path class="a" d="M773.357,392.314c-.636.464-1.221.916-1.844,1.355a62.182,62.182,0,0,1-7.205,4.394c-13.087,6.9-29.221,10.27-44.935,12.56-35.243,5.138-71.224,6.137-107.052,7.116-96.807,2.658-193.849,5.31-290.421-.814-38.156-2.417-77.151-6.461-111.726-18.862Q202.74,395.4,195.6,392.2a119.706,119.706,0,0,1-26.582-15.9c-7.23-5.9-13.094-12.68-16.6-20.388-7.307-16.051-3.44-34.079,4.9-49.812a154.8,154.8,0,0,1,11.695-18.3c6.442-8.858,13.545-17.462,20.025-26.315,23.059-31.466,38.1-71.275,16.82-103.548-6.118-9.272-14.957-17.412-19.943-27.09-6.359-12.381-5.87-26.13-3.847-39.485q.394-2.544.833-5.037c3.453-19.8,9.952-41.138,29.99-53.5,20.814-12.846,50.372-12.2,76.2-7.631,40.171,7.173,77.227,22.1,114.677,35.586s76.629,25.8,117.786,27.122c36.343,1.17,78.734-7.587,102.855-30.346,23.428-22.1,67.465-23.79,99.2-10.436,21.787,9.164,38.041,25.672,44.9,44.241a57.746,57.746,0,0,1,2.982,11.523,53.142,53.142,0,0,1,.534,10.868c-.1,1.793-.28,3.568-.534,5.323-5.3,36.642-43.478,65.545-66.683,98.276-11.339,15.987-19.345,35.192-11.548,52.432,11.892,26.27,53.246,35.612,78.219,55.16a58.761,58.761,0,0,1,12.273,12.591C795.875,354.94,791.4,378.438,773.357,392.314Z" transform="translate(-80.735 -21.741)"/><g transform="translate(-0.01 -0.019)"><path class="b" d="M224.032,274.648s-29.253-51.841-73.335-66.772A90.164,90.164,0,0,1,105.012,173.7,151.351,151.351,0,0,1,91.53,149.46" transform="translate(-59.963 -68.049)"/><path class="c" d="M45.737,121.922c5.024,4.852,28.413,9.94,28.413,9.94s-5.723-23.224-10.76-28.1a12.674,12.674,0,1,0-17.654,18.188Z" transform="translate(-41.89 -50.108)"/><path class="c" d="M62.9,186.088c6.862,1.361,29.253-7.116,29.253-7.116S74.7,162.59,67.832,161.23A12.673,12.673,0,1,0,62.9,186.091Z" transform="translate(-45.822 -72.245)"/><path class="c" d="M134.638,257.962c6.614-2.289,21.621-20.9,21.621-20.9s-23.326-5.335-29.933-3.046a12.674,12.674,0,1,0,8.267,23.949Z" transform="translate(-69.386 -98.625)"/><path class="c" d="M205.561,298.815c6.906-1.145,24.865-16.947,24.865-16.947s-22.086-9.2-28.992-8.064a12.675,12.675,0,0,0,4.127,25.011Z" transform="translate(-96.112 -113.284)"/><path class="c" d="M130.88,153.319c0,7-12.655,27.3-12.655,27.3s-12.68-20.292-12.687-27.288a12.674,12.674,0,1,1,25.342,0Z" transform="translate(-65.061 -64.741)"/><path class="c" d="M211.963,200.841c-2.092,6.677-20.248,22.257-20.248,22.257s-6.029-23.18-3.962-29.889a12.674,12.674,0,0,1,24.165,7.574Z" transform="translate(-94.838 -80.931)"/><path class="c" d="M283.506,260.327c-.928,6.938-16.191,25.361-16.191,25.361s-9.857-21.8-8.9-28.738a12.673,12.673,0,1,1,25.121,3.377Z" transform="translate(-120.697 -103.183)"/><path class="d" d="M45.737,121.922c5.024,4.852,28.413,9.94,28.413,9.94s-5.723-23.224-10.76-28.1a12.674,12.674,0,1,0-17.654,18.188Z" transform="translate(-41.89 -50.108)"/><path class="d" d="M62.9,186.088c6.862,1.361,29.253-7.116,29.253-7.116S74.7,162.59,67.832,161.23A12.673,12.673,0,1,0,62.9,186.091Z" transform="translate(-45.822 -72.245)"/><path class="d" d="M134.638,257.962c6.614-2.289,21.621-20.9,21.621-20.9s-23.326-5.335-29.933-3.046a12.674,12.674,0,1,0,8.267,23.949Z" transform="translate(-69.386 -98.625)"/><path class="d" d="M205.561,298.815c6.906-1.145,24.865-16.947,24.865-16.947s-22.086-9.2-28.992-8.064a12.675,12.675,0,0,0,4.127,25.011Z" transform="translate(-96.112 -113.284)"/><path class="d" d="M130.88,153.319c0,7-12.655,27.3-12.655,27.3s-12.68-20.292-12.687-27.288a12.674,12.674,0,1,1,25.342,0Z" transform="translate(-65.061 -64.741)"/><path class="d" d="M211.963,200.841c-2.092,6.677-20.248,22.257-20.248,22.257s-6.029-23.18-3.962-29.889a12.674,12.674,0,0,1,24.165,7.574Z" transform="translate(-94.838 -80.931)"/><path class="d" d="M283.506,260.327c-.928,6.938-16.191,25.361-16.191,25.361s-9.857-21.8-8.9-28.738a12.673,12.673,0,1,1,25.121,3.377Z" transform="translate(-120.697 -103.183)"/><path class="b" d="M256.937,248.428s-5.723-59.256-39.987-90.772A90.137,90.137,0,0,1,189.033,107.9,151.446,151.446,0,0,1,186.54,80.27" transform="translate(-94.553 -42.859)"/><path class="c" d="M152.252,38.865c2.62,6.493,21.959,20.579,21.959,20.579s4.165-23.561,1.552-30.054a12.683,12.683,0,0,0-23.529,9.475Z" transform="translate(-81.727 -21.441)"/><path class="c" d="M141.925,104.5c5.723,4.025,29.615,5.342,29.615,5.342S162.275,87.8,156.551,83.771A12.683,12.683,0,0,0,141.925,104.5Z" transform="translate(-76.355 -43.288)"/><path class="c" d="M178.5,199.272c7,.591,28.261-10.34,28.261-10.34S187.6,174.6,180.626,174.019a12.674,12.674,0,1,0-2.124,25.253Z" transform="translate(-87.297 -76.965)"/><path class="c" d="M226.716,265.33c6.779,1.755,29.6-5.418,29.6-5.418s-16.464-17.361-23.237-19.116a12.673,12.673,0,1,0-6.36,24.536Z" transform="translate(-105.725 -101.153)"/><path class="c" d="M217.285,102.234c-2.83,6.4-22.633,19.822-22.633,19.822s-3.37-23.682-.541-30.086a12.673,12.673,0,1,1,23.175,10.265Z" transform="translate(-96.898 -44.372)"/><path class="c" d="M269.239,178.071c-4.617,5.259-27.529,12.146-27.529,12.146s3.866-23.606,8.49-28.865a12.669,12.669,0,0,1,19.04,16.718Z" transform="translate(-114.639 -70.81)"/><path class="c" d="M312.64,261.74c-3.663,5.965-25.081,16.623-25.081,16.623s-.178-23.924,3.485-29.889a12.683,12.683,0,0,1,21.622,13.265Z" transform="translate(-131.331 -101.895)"/></g><ellipse class="a" cx="70.925" cy="9.234" rx="70.925" ry="9.234" transform="translate(188.631 523.144)"/><g transform="translate(92.941 490.597)"><ellipse class="a" cx="21.545" cy="3.688" rx="21.545" ry="3.688" transform="translate(1.808 37.38)"/><path class="c" d="M226.63,792.94s3.491,4.572-1.615,11.447-9.316,12.719-7.631,17.024c0,0,7.7-12.814,13.99-12.992S233.536,800.647,226.63,792.94Z" transform="translate(-198.597 -792.94)"/><path class="e" d="M226.752,792.94a5.615,5.615,0,0,1,.712,1.437c6.118,7.186,9.38,13.9,3.5,14.06-5.475.159-12.051,9.952-13.622,12.426a5.872,5.872,0,0,0,.184.566s7.7-12.814,13.99-12.992S233.658,800.647,226.752,792.94Z" transform="translate(-198.718 -792.94)"/><path class="f" d="M241.888,801.5c0,1.609-.178,2.912-.4,2.912s-.407-1.272-.407-2.912.229-.852.452-.852S241.888,799.895,241.888,801.5Z" transform="translate(-207.361 -795.679)"/><path class="f" d="M244.279,804.487c-1.412.769-2.645,1.234-2.754,1.036s.954-.979,2.366-1.749.852-.21.96,0S245.691,803.717,244.279,804.487Z" transform="translate(-207.521 -796.741)"/><path class="c" d="M198.629,792.94s-3.491,4.572,1.615,11.447,9.316,12.719,7.631,17.024c0,0-7.7-12.814-13.99-12.992S191.735,800.647,198.629,792.94Z" transform="translate(-189.05 -792.94)"/><path class="e" d="M198.621,792.94a5.614,5.614,0,0,0-.712,1.437c-6.118,7.186-9.38,13.9-3.5,14.06,5.482.159,12.051,9.952,13.622,12.426a4.521,4.521,0,0,1-.184.566s-7.7-12.814-13.99-12.992S191.728,800.647,198.621,792.94Z" transform="translate(-189.042 -792.94)"/><path class="f" d="M192.91,801.5c0,1.609.178,2.912.4,2.912s.407-1.272.407-2.912-.229-.852-.452-.852S192.91,799.895,192.91,801.5Z" transform="translate(-189.824 -795.679)"/><path class="f" d="M188.917,804.487c1.412.769,2.639,1.234,2.747,1.036s-.954-.979-2.366-1.749-.852-.21-.96,0S187.506,803.717,188.917,804.487Z" transform="translate(-188.057 -796.741)"/><path class="g" d="M194.66,833.777s9.768-.305,12.719-2.4,15.021-4.6,15.752-1.24,14.677,16.719,3.65,16.807-25.621-1.717-28.559-3.5S194.66,833.777,194.66,833.777Z" transform="translate(-190.461 -805.885)"/><path class="h" d="M226.971,848.793c-11.027.089-25.621-1.717-28.559-3.5-2.238-1.367-3.129-6.258-3.428-8.509h-.324s.636,7.873,3.555,9.666,17.532,3.593,28.559,3.5c3.18,0,4.286-1.157,4.223-2.836C230.558,848.144,229.343,848.774,226.971,848.793Z" transform="translate(-190.461 -808.901)"/><path class="c" d="M693.875,836.19s-26.887-1.622-23.714,17.221a4.584,4.584,0,0,0,2.385,4.839s.051-1.393,2.76-.922a12.309,12.309,0,0,0,2.919.14,6.041,6.041,0,0,0,3.574-1.475h0s7.555-3.116,10.493-15.472c0,0,2.175-2.7,2.092-3.39l-4.541,1.908s1.552,3.275.331,6c0,0-.146-5.876-1.017-5.723-.178,0-2.359,1.132-2.359,1.132s2.671,5.723.636,9.844c0,0,.763-7-1.488-9.431l-3.18,1.863s3.116,5.889,1,10.7c0,0,.541-7.37-1.672-10.245L679.2,845.43s2.925,5.806,1.138,9.793c0,0-.229-8.579-1.768-9.227,0,0-2.544,2.232-2.919,3.18,0,0,2,4.21.763,6.436,0,0-.763-5.723-1.393-5.723,0,0-2.544,3.816-2.785,6.359a13.846,13.846,0,0,1,2.175-6.747,7.593,7.593,0,0,0-3.86,2s.394-2.677,4.451-2.913c0,0,2.086-2.874,2.645-3.046,0,0-4.07-.343-6.537.75,0,0,2.169-2.544,7.281-1.38l2.855-2.328s-5.354-.738-7.631.076c0,0,2.62-2.238,8.4-.636l3.116-1.857a28.378,28.378,0,0,0-7.294-.636s2.874-1.552,8.2.127l2.226-1s-3.351-.636-4.331-.757-1.03-.375-1.03-.375a11.613,11.613,0,0,1,6.289.7S693.957,836.489,693.875,836.19Z" transform="translate(-363.483 -808.673)"/><ellipse class="a" cx="19.027" cy="3.218" rx="19.027" ry="3.218" transform="translate(292.846 48)"/><path class="c" d="M625.8,837.779s-15.161-.916-13.354,9.711a2.6,2.6,0,0,0,1.348,2.728s0-.789,1.558-.521a7.416,7.416,0,0,0,1.641.083,3.479,3.479,0,0,0,2.016-.833h0s4.261-1.762,5.92-8.725c0,0,1.221-1.52,1.176-1.908L623.56,839.4a4.61,4.61,0,0,1,.184,3.383s-.083-3.313-.572-3.237c-.1,0-1.329.636-1.329.636s1.5,3.18.369,5.552c0,0,.426-3.962-.839-5.323l-1.8,1.056s1.755,3.32.566,6.029c0,0,.305-4.159-.948-5.774l-1.628,1.272s1.647,3.275.636,5.52c0,0-.134-4.839-1-5.2a9.946,9.946,0,0,0-1.647,1.774s1.132,2.378.432,3.631c0,0-.432-3.224-.782-3.237a10.683,10.683,0,0,0-1.571,3.6,7.726,7.726,0,0,1,1.221-3.816,4.273,4.273,0,0,0-2.175,1.126s.223-1.513,2.544-1.641a9.63,9.63,0,0,1,1.488-1.717,9.318,9.318,0,0,0-3.688.42s1.227-1.424,4.108-.776l1.609-1.316s-3.021-.413-4.3.044c0,0,1.475-1.272,4.738-.343l1.749-1.043a15.711,15.711,0,0,0-4.108-.356s1.622-.871,4.623.07l1.272-.56s-1.908-.375-2.436-.432-.585-.21-.585-.21a6.563,6.563,0,0,1,3.549.394A14.982,14.982,0,0,0,625.8,837.779Z" transform="translate(-342.511 -809.257)"/><ellipse class="a" cx="10.728" cy="1.812" rx="10.728" ry="1.812" transform="translate(262.118 40.076)"/><path class="c" d="M669.559,802.366s-18.3-1.107-16.14,11.72a3.129,3.129,0,0,0,1.628,3.294s0-.948,1.876-.636a9.034,9.034,0,0,0,1.984.1,4.191,4.191,0,0,0,2.436-1h0s5.145-2.124,7.141-10.537c0,0,1.482-1.831,1.424-2.3l-3.091,1.316a5.56,5.56,0,0,1,.229,4.083s-.1-4-.7-3.9c-.114,0-1.6.77-1.6.77s1.819,3.885.445,6.7c0,0,.521-4.782-1.011-6.423L662,806.811s2.124,4.006.687,7.281c0,0,.369-5.017-1.145-7l-1.971,1.533s2,3.949.782,6.665c0,0-.159-5.838-1.208-6.283a11.972,11.972,0,0,0-1.984,2.143s1.367,2.868.515,4.381c0,0-.515-3.885-.941-3.9a12.766,12.766,0,0,0-1.908,4.343,9.355,9.355,0,0,1,1.475-4.591,5.169,5.169,0,0,0-2.626,1.361s.267-1.825,3.052-1.984a11.959,11.959,0,0,1,1.8-2.073,11.323,11.323,0,0,0-4.451.515s1.475-1.723,4.96-.941l1.946-1.583s-3.65-.5-5.2.051c0,0,1.781-1.52,5.723-.413l2.118-1.272a20.858,20.858,0,0,0-4.96-.426s1.952-1.056,5.583.083l1.513-.674s-2.283-.452-2.951-.521-.7-.254-.7-.254a7.905,7.905,0,0,1,4.28.477S669.622,802.57,669.559,802.366Z" transform="translate(-357.419 -796.363)"/><ellipse class="a" cx="12.954" cy="2.188" rx="12.954" ry="2.188" transform="translate(286.589 19.949)"/></g><g transform="translate(86.959 60.749)"><path class="i" d="M783.638,428.051V117H178.65V410.207a120.445,120.445,0,0,0,26.709,16.331q7.161,3.3,14.626,6.035H776.421Z" transform="translate(-178.65 -117)"/><path class="c" d="M783.226,433.275V131H180.73V415.959a121.668,121.668,0,0,0,26.582,15.9q7.135,3.18,14.575,5.863H776.021Z" transform="translate(-179.407 -122.097)"/><rect class="j" width="602.489" height="15.987" transform="translate(1.329 0.884)"/></g><g transform="translate(96.187 65.493)"><circle class="c" cx="4.134" cy="4.134" r="4.134"/><circle class="c" cx="4.134" cy="4.134" r="4.134" transform="translate(11.129)"/><circle class="c" cx="4.134" cy="4.134" r="4.134" transform="translate(22.257)"/></g><g transform="translate(104.454 112.756)"><rect class="c" width="99.522" height="62.537" transform="translate(137.799)"/><rect class="k" width="99.522" height="62.537"/><rect class="k" width="99.522" height="62.537" transform="translate(275.598)"/><rect class="k" width="99.522" height="62.537" transform="translate(0 89.405)"/><rect class="k" width="99.522" height="62.537" transform="translate(137.799 89.405)"/><rect class="k" width="99.522" height="62.537" transform="translate(275.598 89.405)"/><rect class="k" width="99.522" height="62.537" transform="translate(0 178.803)"/><rect class="k" width="99.522" height="62.537" transform="translate(137.799 178.803)"/><rect class="k" width="99.522" height="62.537" transform="translate(275.598 178.803)"/></g><g transform="translate(219.137 128.372)"><path class="l" d="M491.345,364.426s-17.876-32.674-14.862-37.99a72.405,72.405,0,0,0,5.234-13.011s6.6-4.515,6.6-6.359,5.227-6.111,7.981-7.968,1.374-10.626,0-11.688-3.555-4.782-3.555-4.782,1.908-5.31,0-6.906.28-3.18,0-4.782a64.175,64.175,0,0,1,0-7.434,11.984,11.984,0,0,0-7.033-5.087l-.2-.839-1.176-4.954s5.723-10.97-3.561-16.712a15.518,15.518,0,0,0-2.054-1.081,7.133,7.133,0,0,0-.051-.719,44.944,44.944,0,0,0-1.348-8.4c-.483-1.539-1.113-2.576-1.908-2.34a1.272,1.272,0,0,0-.521.3,5.8,5.8,0,0,0-.986,1.164h0a.259.259,0,0,1-.044.07,19.944,19.944,0,0,0-2.188,6.073,35.071,35.071,0,0,0-.636,3.816,20.977,20.977,0,0,0-1.062,2.359c-1.126,2.919-2.442,7.975-.044,11.714,2.035,3.18,4.776,7.548,6.766,10.728l.064.1.121.2-.21.134v.49l.184,2.677,1.539,23.135a9.834,9.834,0,0,0-1.412-.3,12.824,12.824,0,0,0-2.054-.134c-1.342-5.272-5.024-10.175-5.723-15.682a14.537,14.537,0,0,1-.108-1.66c.057-3.466.922-6.944.852-10.4,0-.636,0-1.272-.064-1.908h0a5.1,5.1,0,0,0-.051-.528,15.637,15.637,0,0,0-8.5-11.847c-1.6-.795-3.326-1.323-4.878-2.194-3.587-2.01-5.882-5.634-9.138-8.121-2.423-1.851-6.041-2.843-8.744-1.908a40.369,40.369,0,0,0-4.254.878h0a38.379,38.379,0,0,0-9.736,4.045c-.413.248-.827.5-1.221.795a5.38,5.38,0,0,0-1.965,2.3,6.016,6.016,0,0,0-.305,2.474c0,.6,0,1.221.038,1.825-.178,10.175-11.141,18.048-12.044,27.981,0,.235-.038.471-.051.706v1.087h0v.795c.159,4.356,2.423,8.413,2.836,12.75.038.388.057.769.064,1.157a19.231,19.231,0,0,1-1.126,5.838,17.085,17.085,0,0,0-3.949,1.6c-3.332,2.143-9.348,5.844-11.542,12.922a18.926,18.926,0,0,0-.833,5.672,118.45,118.45,0,0,1-1.857,20.254,37.859,37.859,0,0,1-1.17,4.979,1.169,1.169,0,0,0-.038.49l-1.323,17.17-.235,3.021-.331,4.3s.1.261.235.7a20.221,20.221,0,0,1,.521,1.984,10.671,10.671,0,0,1,.172,4.451,3.065,3.065,0,0,1-.929,1.634.685.685,0,0,0-.108.121,13.206,13.206,0,0,0-1,4.375c-.114.89-.223,1.908-.331,2.963-.636,6.773-1.03,16.909-1.272,25.291-.229,8.267-.312,14.8-.312,14.8a16.877,16.877,0,0,0,3.415,1.692c-.089.223-.184.452-.273.693a33.407,33.407,0,0,0-2.073,8.738c-.534,6.251,1.215,13.2,9.933,16.769a14.024,14.024,0,0,0,1.711.585,5.426,5.426,0,0,0,4.35-.267c0,.375.045.738.064,1.1.089,1.552.165,2.97.2,4.159.273,7.44,2.118,20.451,2.118,20.451s.636,5.316.083,6.906,0,7.968,0,7.968,1.908,3.18,0,4.782-2.474,9.539-1.908,10.626a.357.357,0,0,1,.032.121c.42,2.639-1.952,41.85-1.952,41.85s-2.245,6-4.032,12.235c-1.742,6.067-3.052,12.35-1.437,13.526a13.5,13.5,0,0,0,5.03,1.361c0,.261-.038.521-.064.789-.229,2.8-.591,5.825-1.113,6.588-.757,1.081-1.552,9.463-1.94,13.99l-.038.5a46.869,46.869,0,0,0-2.048,5.94s-6.086,15.262-4.025,19.224a3.249,3.249,0,0,0,.757.935h0a1.722,1.722,0,0,0,.2.178c2.932,2.347,10.277,2.836,12.941,2.944l-.1,3.777v.14h3.466v-.1c0-.477.076-2.665.191-5.59,0-.521.038-1.068.064-1.628,0-.439.044-.884.064-1.342a23.528,23.528,0,0,0,1.507-8.49,37.248,37.248,0,0,1,1.335-9.844,27.344,27.344,0,0,1,1.761-4.8s1.081-5.723-.426-9.774a7.06,7.06,0,0,0-1.272-2.2v-1.272a36.681,36.681,0,0,1,.814-8.153.894.894,0,0,1,0-.127c.051-.223.108-.432.165-.636l.038-.14,1.126.038c3.453.1,5.99.1,5.99.1s2.754-14.079,2.48-20.184v-.827a78.616,78.616,0,0,1,1.666-14.315l2.219-21.526s-1.1-3.727,0-6.359c.68-1.641,2.086-4.687,3.065-6.785.458-.973.82-1.736.973-2.067l.089-.178a4.116,4.116,0,0,1-.979-.49h0c-.9-.6-1.7-1.768.986-3.491,4.127-2.658,2.754-9.3,2.754-9.3a4.773,4.773,0,0,1,.216-4.515c1.431-2.124,0-10.092,0-10.092a33.372,33.372,0,0,0,2.823-6.645c1.024-3.18,3.612-18.728,4.833-26.226.4-2.461.636-4.051.636-4.051l.038.388.038.42h0l.343,3.542.045.471.636,6.7s1.272,17.6.477,24.5v.127a8.152,8.152,0,0,1-.464,2.092c-1.463,3.307-1.2,16.445-1.119,19.351v.585a11.7,11.7,0,0,0-.776,4.49h0a2.881,2.881,0,0,0,.5,1.335,3.383,3.383,0,0,1,.49,2.067v.064a7.516,7.516,0,0,1-.076.916,17.463,17.463,0,0,1-.967,3.6s-1.475,3.879-.916,5.908h0a1.87,1.87,0,0,0,.363.719,1.7,1.7,0,0,1,.21.763.271.271,0,0,0,0,.07c.515,4.28-.814,23.173-1.6,33.513-.318,4.083-.547,6.83-.547,6.83l-2.181,22.575.216.153c.248.178.712.483,1.335.852v.051l-.1.68c-.312,2.175-.731,4.706-1.189,6.639-.038.146-.07.286-.108.42a6.085,6.085,0,0,0-2.334.935c-4.63,8.223-2.582,14.741,0,16.636.731.534,1.227,2.029,1.558,3.885l.636,8.2v.941a2.441,2.441,0,0,0,.121.75l.2,2.486.267,3.459h2.111v-4.191h.114c3.332.115,8.706.254,11.046.07h.064a4.121,4.121,0,0,0,.636-.07,1.6,1.6,0,0,0,.369-.1c1.24-.6,4.331-9.361,1.545-11.351s-3.4-7.631-3.4-7.631c-.242-.738-.483-1.437-.731-2.1v-.432a34.974,34.974,0,0,1,.331-7.288,55.435,55.435,0,0,0,.725-8.706v-.808a10.845,10.845,0,0,0,1.418-.464l.1-.045a9.992,9.992,0,0,0,2.372-1.405l7.784-34.493.82-4.013,4.674-22.823s-1.647-7.968,0-9.291c.6-.483.769-2.544.731-4.928-.064-4.172-.731-9.418-.731-9.418s2.2-3.453,3.307-5.577,0-7.7,0-7.7l2.168-12.769s2.48-15.141,8.528-27.892c4.451-9.38,1.615-34.709-1.272-48.19-.076-.35-.153-.693-.229-1.024v-.051c1.361-.674,3.027-1.488,4.808-2.34l.674-.318c2.258-1.062,4.649-2.156,6.792-3.065l.14-.057a47.428,47.428,0,0,1,4.725-1.768,7.927,7.927,0,0,1,1.45-.3C502.9,384.61,491.345,364.426,491.345,364.426ZM405.3,407.637h1.145c-.134.248-.261.5-.388.757-.076.153-.153.3-.223.451-.42.871-.808,1.762-1.126,2.633.127-.941.286-1.965.464-3.059C405.215,408.177,405.26,407.891,405.3,407.637Zm-3.091,16.579a.472.472,0,0,0,0-.089l-.1-.3c-.07-.2-.134-.407-.2-.636q.591-.178,1.2-.4h.083V423c-.032.3-.07.6-.108.89h0a.64.64,0,0,1,0,.114,6.184,6.184,0,0,1-.083.7c-.057.458-.115.9-.165,1.329-.121-.4-.242-.795-.369-1.183a3.013,3.013,0,0,1-.267-.636Z" transform="translate(-386.5 -223.338)"/><path class="m" d="M531.173,263.235l-6.868,2.429-2.493-4.133c-1.908-3.18-4.553-7.529-6.505-10.69-3.447-5.558,1.062-14.029,1.062-14.029s.814-8.5,3.714-11.122,3.707,11.122,3.707,11.122c11.644,5.291,5.405,17.736,5.405,17.736l1.132,4.935Z" transform="translate(-432.923 -224.073)"/><path class="e" d="M535.641,282.641l-6.868,2.429-2.493-4.134v-.362a11.96,11.96,0,0,1,8.528-1.685Z" transform="translate(-437.39 -243.479)"/><path class="n" d="M523.56,310.948l3.44-2.913-1.723-26.213s8.9-6.092,15.491,3.44a66.91,66.91,0,0,0,0,7.415c.267,1.59-1.85,3.18,0,4.763s0,6.887,0,6.887,2.092,3.707,3.415,4.763,2.652,9.8,0,11.65-7.625,6.092-7.625,7.943-6.359,6.359-6.359,6.359l-5.583-7.383Z" transform="translate(-436.4 -243.932)"/><path class="m" d="M401.037,559.6c-12.833-5.444-9.984-18.741-7.568-25.437a34.626,34.626,0,0,1,1.7-3.968l7.2-4.369s1.469,3.746,3.04,8.769C409.049,546.288,413.24,564.787,401.037,559.6Z" transform="translate(-388.28 -333.467)"/><path class="m" d="M424.681,767.761a21.62,21.62,0,0,0-1.908,5.354,38.667,38.667,0,0,0-.827,9.113c.051,2.118.229,3.5.229,3.5l-14.3,9.831s.083-1.151.223-2.843c.369-4.5,1.138-12.858,1.863-13.94.5-.75.852-3.765,1.075-6.563s.312-5.253.312-5.253S428.554,760.518,424.681,767.761Z" transform="translate(-394.284 -420.296)"/><path class="m" d="M479.37,780.081s0,2.734-.1,5.914a60.559,60.559,0,0,1-.693,8.68,35.733,35.733,0,0,0-.324,7.262c.1,3.18.324,6.041.324,6.041s-14.595-13.8-13.106-14.893a6.762,6.762,0,0,0,1.157-3.033c.445-1.908.846-4.451,1.145-6.614.356-2.576.579-4.649.579-4.649Z" transform="translate(-415.212 -425.563)"/><path class="e" d="M426.509,767.761a21.619,21.619,0,0,0-1.908,5.354,116.831,116.831,0,0,1-11.7-.9c.216-2.734.312-5.253.312-5.253S430.382,760.518,426.509,767.761Z" transform="translate(-396.112 -420.296)"/><path class="e" d="M480.749,780.088s0,2.734-.1,5.914c-4.553,1.164-9.234-1.164-11.5-2.544.356-2.576.579-4.649.579-4.649Z" transform="translate(-416.591 -425.571)"/><path class="o" d="M487.015,535.6c-5.825,12.719-8.21,27.8-8.21,27.8l-2.118,12.719s1.062,5.558,0,7.676-3.18,5.564-3.18,5.564,1.59,12.973,0,14.3,0,9.265,0,9.265l-5.3,26.709L460.8,674.047c-7.148,5.831-16.661-1.583-16.661-1.583l2.1-22.505s3.18-39.427,1.857-41.043.528-6.62.528-6.62,1.857-4.769.534-6.62.261-5.825.261-5.825-.528-16.153,1.062-19.86,0-26.639,0-26.639l-.636-7.141-.369-3.955-.032-.388s-.242,1.583-.636,4.038c-1.17,7.472-3.663,22.957-4.649,26.143a34.043,34.043,0,0,1-2.715,6.62s1.374,7.943,0,10.06a4.925,4.925,0,0,0-.21,4.5s1.323,6.62-2.652,9.265,0,3.975,0,3.975-2.913,6.359-3.968,9,0,6.359,0,6.359l-2.118,21.443s-1.857,9-1.59,15.091-2.385,20.121-2.385,20.121-20.388,0-23.529-2.385,5.246-25.647,5.246-25.647,2.385-40.776,1.851-41.831,0-9,1.857-10.588,0-4.769,0-4.769-.528-6.359,0-7.943-.083-6.887-.083-6.887-1.774-12.973-2.035-20.388-1.59-24.089-1.59-24.089,1.386-10.315,1.6-15.224a17.29,17.29,0,0,1,1.908-6.188,55.2,55.2,0,0,1,3.943-6.919s62.734-18.544,65.367-16.7c.7.49,1.717,3.816,2.722,8.63C488.567,501.005,491.3,526.252,487.015,535.6Z" transform="translate(-392.974 -316.344)"/><circle class="p" cx="18.27" cy="18.27" r="18.27" transform="translate(37.119 20.892)"/><path class="e" d="M491.178,487.568c-2.1,1.081-3.517,1.825-3.517,1.825s-29.653,14.035-38.086,13.24c-6.525-.636-23.18-.273-30.435-.1a55.209,55.209,0,0,1,3.943-6.919s62.74-18.537,65.373-16.693C489.155,479.428,490.173,482.742,491.178,487.568Z" transform="translate(-398.383 -316.344)"/><path class="n" d="M433.126,328.127s-16.922,2.671-20.916,5.291-11.9,7.682-11.9,18.537-1.851,21.978-2.913,25.151,16.68,28.858,16.68,28.858l-6.359,38.925s25.437-.795,33.908,0,38.111-13.24,38.111-13.24,17.475-9.265,21.183-9.539-7.415-20.388-7.415-20.388-17.215-32.559-14.3-37.857a73.167,73.167,0,0,0,5.049-12.973l-3.18-27s-4.763-1.59-8.738,1.323-17.475,1.323-17.475,1.323Z" transform="translate(-390.45 -259.789)"/><path class="e" d="M401.919,397.406l-6.639,1.851-1.838,24.916s2.385,6.62,0,8.738-2.913,47.4-2.913,47.4,7.682,5.558,16.68,1.323c0,0-1.323-5.03,2.652-23.3s3.968-27.536,3.968-27.536,0-22.773,1.857-26.48,0-12.973,0-12.973-3.707-5.03-3.447-6.881S401.919,397.406,401.919,397.406Z" transform="translate(-387.967 -281.939)"/><path class="e" d="M406.6,534.629a16.909,16.909,0,0,1-11.936-.432,34.632,34.632,0,0,1,1.7-3.968l7.2-4.369S405.051,529.606,406.6,534.629Z" transform="translate(-389.471 -333.478)"/><path class="n" d="M401.293,397.391l-6.62,1.851-1.851,24.916s2.385,6.62,0,8.738-2.913,47.4-2.913,47.4,7.688,5.552,16.68,1.3c0,0-1.323-5.03,2.645-23.3s3.975-27.536,3.975-27.536,0-22.773,1.851-26.48,0-12.973,0-12.973-3.707-5.03-3.44-6.881S401.293,397.391,401.293,397.391Z" transform="translate(-387.742 -281.925)"/><path class="e" d="M506.667,411.15s-3.44,29.653-13.507,35.218C493.16,446.368,515.665,440.015,506.667,411.15Z" transform="translate(-425.332 -291.715)"/><path class="e" d="M434.88,415.32s12.439,6.086,9.539,10.321S434.88,415.32,434.88,415.32Z" transform="translate(-404.114 -293.233)"/><path class="e" d="M434.88,434.47s7.943,8.21,6.359,11.122S434.88,434.47,434.88,434.47Z" transform="translate(-404.114 -300.205)"/><path class="e" d="M535.63,327.47s3.116,5.291,3.415,8.738S535.63,327.47,535.63,327.47Z" transform="translate(-440.794 -261.25)"/><path class="e" d="M535.63,315.892s1.564-1.329,5.558,0S535.63,315.892,535.63,315.892Z" transform="translate(-440.794 -256.819)"/><path class="e" d="M498.381,556.34a36.819,36.819,0,0,1-19.364-2.48l-3.339,8.547-.369-3.955c.547-3.32,1.609-6.874,3.707-7.771C479.017,550.68,486.369,556.537,498.381,556.34Z" transform="translate(-418.833 -342.514)"/><path class="e" d="M426.18,577.07s16.286,3.377,20.852,2.779Z" transform="translate(-400.947 -352.122)"/><path class="e" d="M428.84,583.765s6.951-.3,10.423,1.094Z" transform="translate(-401.915 -354.55)"/><path class="e" d="M430.09,588.31a62.315,62.315,0,0,0,9.628,1.272Z" transform="translate(-402.37 -356.215)"/><path class="e" d="M429.46,644.514c.3-.2,13.9-3.377,15.593-1.094Z" transform="translate(-402.141 -375.979)"/><path class="e" d="M429.46,651.816s11.815-1.393,12.114,0S429.46,651.816,429.46,651.816Z" transform="translate(-402.141 -379.11)"/><path class="e" d="M429.46,656.914s12.61-2.607,14.1-1.971S429.46,656.914,429.46,656.914Z" transform="translate(-402.141 -380.437)"/><path class="e" d="M422.216,794.963l-14.3,9.831s.083-1.151.223-2.843A38.538,38.538,0,0,1,415.462,790c3.224-.839,5.259-.064,6.525,1.456C422.038,793.57,422.216,794.963,422.216,794.963Z" transform="translate(-394.299 -429.52)"/><path class="o" d="M420.125,804.02a35.478,35.478,0,0,0-2.982,14.626,22.683,22.683,0,0,1-3.027,11.771,11.6,11.6,0,0,1-1,1.437s-9.933-.083-13.412-2.963a3.44,3.44,0,0,1-.935-1.145c-1.99-3.968,3.873-19.16,3.873-19.16,3.078-11.714,9.329-17.971,9.329-17.971C423.1,787.734,420.125,804.02,420.125,804.02Z" transform="translate(-390.815 -429.744)"/><path class="e" d="M414.886,840.91a11.6,11.6,0,0,1-1,1.437s-9.933-.083-13.412-2.963c1.711-5.66,7.167-22.785,9.723-19.873C412.6,822.245,414.27,835.4,414.886,840.91Z" transform="translate(-391.586 -440.268)"/><path class="o" d="M420.6,820.569l-.693,25.653h3.332s.541-22.505,2.029-25.653S420.6,820.569,420.6,820.569Z" transform="translate(-398.664 -440.265)"/><path class="e" d="M478.575,814.375s-14.595-13.8-13.106-14.893a6.762,6.762,0,0,0,1.157-3.033c2.8-.49,7.631.68,11.625,11.885C478.347,811.513,478.575,814.375,478.575,814.375Z" transform="translate(-415.212 -431.959)"/><path class="o" d="M478.619,830a1.48,1.48,0,0,1-.35.1c-1.717.3-8.044.127-11.587,0a2.506,2.506,0,0,1-2.423-2.5c0-.954,0-2.118-.076-3.358-.165-3.917-.636-8.579-2.041-9.628-2.486-1.908-4.451-8.382,0-16.579,0,0,8.534-6.518,14.69,13.075,0,0,.6,5.59,3.275,7.574S479.814,829.43,478.619,830Z" transform="translate(-413.074 -432.191)"/><path class="e" d="M480.936,839.545c-1.717.3-8.044.127-11.587,0a2.506,2.506,0,0,1-2.423-2.5c0-.954,0-2.118-.076-3.358,1.075-4.744,2.62-9.628,4.61-10.741C471.473,822.941,477.5,822.26,480.936,839.545Z" transform="translate(-415.753 -441.638)"/><path class="o" d="M423.46,799.539l1.6,21.348H427.1V797.72Z" transform="translate(-373.311 -418.808)"/><path class="e" d="M452.435,239.112a36.514,36.514,0,0,0-16.292,5.234,6.771,6.771,0,0,0-3.072,3.084,10.223,10.223,0,0,0-.248,3.816c.172,10.951-12.038,19.237-11.657,30.181.153,4.343,2.334,8.388,2.734,12.719.668,7.224-3.606,13.87-7.7,19.854a16.445,16.445,0,0,0,11.606-3.847,88.006,88.006,0,0,1,1.622,44.356h5.857a4.451,4.451,0,0,1,1.711.21,4.3,4.3,0,0,1,1.354,1.011c5.475,5.45,9.145,13.507,7.052,20.947L457.866,372a37.026,37.026,0,0,0,8.6-4.1,12.425,12.425,0,0,0,5.316-7.663c.337-1.908.229-4.184,1.8-5.291a9.793,9.793,0,0,1,2.455-.909c3.421-1.208,4.935-5.164,5.634-8.725a50.238,50.238,0,0,0,.795-13.272c-.553-7.44-2.754-15-.941-22.257,1.024-4.076,3.3-7.873,3.485-12.083.3-6.938-5.126-12.916-5.933-19.815-.566-4.808,1.17-9.672.6-14.48A15.555,15.555,0,0,0,471.5,251.6c-1.533-.789-3.18-1.316-4.693-2.188-3.453-2-5.66-5.609-8.795-8.089s-8.356-3.415-10.715-.191Z" transform="translate(-397.313 -229.063)"/><path class="q" d="M452.435,237.855a36.515,36.515,0,0,0-16.292,5.234,6.771,6.771,0,0,0-3.072,3.084,10.223,10.223,0,0,0-.248,3.816c.172,10.951-12.038,19.237-11.657,30.187.153,4.337,2.334,8.381,2.734,12.719.668,7.224-3.606,13.87-7.7,19.86a16.534,16.534,0,0,0,11.606-3.847,87.974,87.974,0,0,1,1.622,44.343h5.857a4.451,4.451,0,0,1,1.711.216,4.184,4.184,0,0,1,1.355,1c5.475,5.456,9.145,13.507,7.052,20.947l12.464-4.674a37.025,37.025,0,0,0,8.6-4.1,12.425,12.425,0,0,0,5.316-7.663c.337-1.908.229-4.184,1.8-5.291a9.794,9.794,0,0,1,2.455-.909c3.421-1.208,4.935-5.164,5.634-8.725a50.239,50.239,0,0,0,.814-13.284c-.553-7.44-2.754-15-.941-22.257,1.024-4.076,3.3-7.873,3.485-12.083.3-6.938-5.126-12.916-5.933-19.815-.566-4.808,1.17-9.666.6-14.48a15.567,15.567,0,0,0-8.184-11.809c-1.533-.789-3.18-1.316-4.693-2.181-3.453-2.01-5.66-5.615-8.795-8.1s-8.356-3.415-10.715-.191Z" transform="translate(-397.313 -228.601)"/><g class="r" transform="translate(18.887 18.742)"><path d="M442.3,252.81a7.073,7.073,0,0,0-.038.738C442.279,253.306,442.292,253.058,442.3,252.81Z" transform="translate(-425.688 -252.81)"/><path d="M514.969,287.051c.229-3.37.979-6.754.7-10.111C515.459,280.31,514.708,283.694,514.969,287.051Z" transform="translate(-452.139 -261.595)"/><path d="M426.74,312.568c-.369-3.943-2.207-7.631-2.639-11.568a14.5,14.5,0,0,0-.1,2.175c.153,4.293,2.283,8.305,2.715,12.579A17.168,17.168,0,0,0,426.74,312.568Z" transform="translate(-419.039 -270.355)"/><path d="M518.6,337.518a27.269,27.269,0,0,0-.636,7.9,23.944,23.944,0,0,1,.636-4.585c1.024-4.076,3.3-7.873,3.485-12.083a13.106,13.106,0,0,0-.1-2.238C521.49,330.294,519.512,333.817,518.6,337.518Z" transform="translate(-453.229 -279.642)"/><path d="M427.806,344.36a16.534,16.534,0,0,1-9.386,3.816c-.725,1.132-1.475,2.238-2.219,3.332a16.534,16.534,0,0,0,11.606-3.847,87.758,87.758,0,0,1,3.7,23.815A87.955,87.955,0,0,0,427.806,344.36Z" transform="translate(-416.2 -286.141)"/><path d="M498.423,395.085c-.7,3.561-2.213,7.517-5.634,8.719a9.539,9.539,0,0,0-2.455.916c-1.571,1.106-1.463,3.4-1.8,5.291a12.266,12.266,0,0,1-5.316,7.631,38.233,38.233,0,0,1-8.6,4.108L462.722,426.2a16.411,16.411,0,0,1-.572,3.529l12.464-4.674a37.026,37.026,0,0,0,8.6-4.1,12.425,12.425,0,0,0,5.316-7.663c.337-1.908.229-4.184,1.8-5.291a9.792,9.792,0,0,1,2.455-.909c3.421-1.208,4.935-5.164,5.634-8.725a49.868,49.868,0,0,0,.9-11.256A49.792,49.792,0,0,1,498.423,395.085Z" transform="translate(-432.929 -301.705)"/><path d="M445.967,415.292a4.2,4.2,0,0,0-1.354-1.011,4.547,4.547,0,0,0-1.711-.216h-5.2c-.2,1.107-.42,2.213-.636,3.313h5.857a4.453,4.453,0,0,1,1.711.216,4.184,4.184,0,0,1,1.355,1c4.006,3.994,7.04,9.374,7.561,14.893C454.2,426.891,450.774,420.1,445.967,415.292Z" transform="translate(-423.798 -311.515)"/></g><path class="e" d="M405.37,449.575s4.731-1.984,5.787,0S405.37,449.575,405.37,449.575Z" transform="translate(-393.37 -305.384)"/><path class="e" d="M408,454.925s4.731-1.984,5.793,0S408,454.925,408,454.925Z" transform="translate(-394.328 -307.332)"/></g><g transform="translate(456.25 5.462)"><path class="a" d="M856.758,51.662s-24.2-1.456-21.342,15.5a4.136,4.136,0,0,0,2.149,4.356s.045-1.272,2.48-.833a11.136,11.136,0,0,0,2.626.127,5.45,5.45,0,0,0,3.2-1.329h0s6.8-2.8,9.443-13.92c0,0,1.959-2.429,1.908-3.052l-4.083,1.749s1.393,2.944.293,5.393c0,0-.127-5.291-.916-5.164-.159,0-2.118,1.017-2.118,1.017s2.4,5.132.585,8.865c0,0,.687-6.321-1.335-8.49l-2.887,1.711s2.8,5.3.9,9.622c0,0,.49-6.633-1.507-9.215l-2.607,2.029s2.639,5.2,1.049,8.782c0,0-.21-7.727-1.6-8.305a15.729,15.729,0,0,0-2.62,2.836s1.8,3.816.681,5.787c0,0-.687-5.138-1.272-5.164,0,0-2.27,3.409-2.506,5.723a12.406,12.406,0,0,1,1.952-6.073,6.785,6.785,0,0,0-3.472,1.806s.35-2.41,4.032-2.626c0,0,1.876-2.582,2.378-2.741,0,0-3.663-.305-5.882.68,0,0,1.952-2.277,6.556-1.272l2.544-2.1s-4.82-.636-6.868.07c0,0,2.353-2.01,7.561-.547l2.8-1.672a25.123,25.123,0,0,0-6.556-.566s2.582-1.393,7.377.114l2-.9s-3.014-.591-3.892-.687-.928-.337-.928-.337a10.4,10.4,0,0,1,5.653.636S856.828,51.929,856.758,51.662Z" transform="translate(-786.966 -37.913)"/><path class="a" d="M808.021,30.06s-20.35,13.17-8.006,25.132a4.138,4.138,0,0,0,4.312,2.238s-.712-1.043,1.507-2.143a11.043,11.043,0,0,0,2.194-1.456,5.475,5.475,0,0,0,1.8-2.97h0s3.816-6.3-.636-16.814c0,0,.14-3.116-.292-3.574l-2.251,3.816s2.868,1.545,3.434,4.165c0,0-3.237-4.178-3.816-3.612-.115.114-1.107,2.079-1.107,2.079s4.979,2.709,5.723,6.785c0,0-3.18-5.5-6.111-6.041l-1.323,3.052s5.405,2.607,6.436,7.218c0,0-3.542-5.634-6.677-6.531l-.89,3.18s5.215,2.645,6.048,6.486c0,0-4.744-6.092-6.207-5.723a16.117,16.117,0,0,0-.432,3.816s3.7,1.984,3.981,4.261c0,0-3.6-3.733-4.064-3.421,0,0,.191,4.089,1.38,6.111A12.419,12.419,0,0,1,801,50.066a6.805,6.805,0,0,0-1.73,3.51s-1.145-2.149,1.7-4.5a17.407,17.407,0,0,1,.286-3.618s-3.129,1.908-4.337,4.032c0,0,.229-2.989,4.547-4.884l.827-3.211s-4.273,2.327-5.488,4.127c0,0,.706-3.014,5.761-4.922l1.272-3.008a25.878,25.878,0,0,0-5.622,3.434s1.272-2.658,6.016-4.28l1.081-1.908s-2.779,1.31-3.542,1.755-.948.28-.948.28a10.423,10.423,0,0,1,4.928-2.843S808.237,30.238,808.021,30.06Z" transform="translate(-772.716 -30.06)"/><path class="a" d="M763.7,54.157s-12.165,20.986,4.261,26.028a4.1,4.1,0,0,0,4.859,0s-1.1-.6.375-2.588a11.137,11.137,0,0,0,1.272-2.289,5.494,5.494,0,0,0,.261-3.466h0s.541-7.339-8.2-14.7c0,0-1.272-2.836-1.908-3.046l-.273,4.451s3.256.076,4.954,2.156c0,0-4.782-2.258-5.024-1.5-.051.153-.044,2.353-.044,2.353s5.717.172,8.261,3.466c0,0-5.342-3.453-8.184-2.614l.2,3.32s6-.127,9,3.517c0,0-5.723-3.415-8.9-2.792l.636,3.237s5.851,0,8.331,3.04c0,0-7-3.281-8.134-2.308a15.717,15.717,0,0,0,1.355,3.618s4.2.089,5.482,1.99c0,0-4.9-1.7-5.176-1.2,0,0,2.029,3.555,4.006,4.814a12.419,12.419,0,0,1-4.547-4.451,6.811,6.811,0,0,0,.051,3.911s-2-1.393-.534-4.782c0,0-1.463-2.836-1.38-3.351,0,0-1.908,3.135-2.035,5.558,0,0-1.157-2.766,1.832-6.41l-.719-3.243s-2.754,4.013-3.021,6.168c0,0-.738-3.008,2.906-7l-.242-3.25a25.385,25.385,0,0,0-3.447,5.609s-.089-2.938,3.415-6.544l.1-2.194s-1.908,2.423-2.359,3.18-.719.649-.719.649a10.468,10.468,0,0,1,3.1-4.776S763.965,54.214,763.7,54.157Z" transform="translate(-759.362 -38.812)"/></g><path class="c" d="M915.2,389.488a9.1,9.1,0,1,0,9.1,9.1,9.1,9.1,0,0,0-9.1-9.1ZM888.59,318.08v9.1h9.1l16.381,33.183-6.849,11.148a8.75,8.75,0,0,0-1.138,4.324c0,6.092,4.165,9.1,9.813,9.1H969.1v-8.75h-52.1a1.075,1.075,0,0,1-1.138-1.138,5.721,5.721,0,0,1,.483-1.132l4.547-7.18h33.9a8.9,8.9,0,0,0,7.962-4.776l16.388-28.178a5.284,5.284,0,0,0,.458-2.277,4.375,4.375,0,0,0-4.553-4.324H907.706l-4.324-9.1ZM960,389.488a9.1,9.1,0,1,0,9.106,9.1,9.1,9.1,0,0,0-9.106-9.1Z" transform="translate(-350.161 -129.458)"/><path class="c" d="M928.656,331.841h-7.631V324.21H915.3v7.631H907.67v5.723H915.3V345.2h5.723v-7.631h7.631Z" transform="translate(-330.462 -118.043)"/></g></svg>