<svg xmlns="http://www.w3.org/2000/svg" xmlns:xlink="http://www.w3.org/1999/xlink" width="775.044" height="509.519" viewBox="0 0 775.044 509.519"><defs><style>.a,.i{fill:#fff;}.a{opacity:0.17;}.b{fill:url(#a);}.c{fill:#65617d;}.d,.k{opacity:0.1;}.e{fill:#a5636d;}.f{fill:#e7effd;}.g{fill:#3f3d56;}.h{fill:#5f5d7e;}.j{fill:#4c3e42;}.l{fill:#e6e8ec;}.m{fill:#444053;}.n{opacity:0.7;}.o{fill:url(#b);}.p{fill:#fbbebe;}.q{opacity:0.05;}.r{fill:#5c5c8e;}.s{fill:none;}.t{fill:#f7cddd;}.u{fill:#7c5c5c;}.v{fill:#3acc6c;}.w{opacity:0.5;}</style><linearGradient id="a" x1="0.5" y1="1" x2="0.5" gradientUnits="objectBoundingBox"><stop offset="0" stop-color="gray" stop-opacity="0.251"/><stop offset="0.54" stop-color="gray" stop-opacity="0.122"/><stop offset="1" stop-color="gray" stop-opacity="0.102"/></linearGradient><linearGradient id="b" x1="0.5" y1="1" x2="0.5" y2="0" xlink:href="#a"/></defs><g transform="translate(0.05 -0.017)"><path class="a" d="M744.112,490.353q-3.629,3.19-7.419,6.2c-.425.344-.863.674-1.295,1.025a260.512,260.512,0,0,1-28.326,19.134l-1.841,1.072c-.445.27-.884.519-1.349.769-10.292,5.942-20.968,11.411-31.772,16.591l-.115.061-.816.384q-13.071,6.265-26.532,11.991l-.216.081q-6.07,2.556-12.14,4.977c-1.652.674-3.311,1.3-4.971,1.942-3.123,1.194-6.252,2.367-9.408,3.494l-.391.148-.674.236-.843.31q-12.349,4.411-25.028,8.147l-.148.04q-8.842,2.576-17.8,4.768l-.816.2c-8.768,2.118-17.677,3.939-26.64,5.4l-2.064.33q-9.833,1.544-19.8,2.522c-37.357,3.608-75.159.674-112.286-4.357C336.452,565.646,262.473,546.58,195,516.7q-19.424-8.6-38.092-18.412c-.1-.054-.189-.108-.29-.155q-11.175-5.874-22.047-12.241c-2.124-1.227-4.235-2.482-6.333-3.743q-3.871-2.334-7.709-4.721-5.058-3.156-10.116-6.468l-1.578-1.052-.607-.411c-.857-.573-1.7-1.147-2.549-1.727-31.7-21.582-59.964-47.736-73.317-80.466-15.431-37.768-5.557-85.653,32.663-107.977,13.138-7.689,28.407-11.863,43.838-15.31l1.578-.351c2.61-.573,5.22-1.126,7.817-1.679,9.1-1.929,18.243-3.844,27.3-5.982h0c4.721-1.113,9.395-2.28,14.042-3.541l1.9-.526a227.347,227.347,0,0,0,32.784-11.546h.067q1.71-.759,3.372-1.571c.715-.337,1.43-.674,2.145-1.045,11.465-5.706,23.605-13.617,32.946-23.045.749-.755,1.477-1.524,2.185-2.293.546-.6,1.086-1.207,1.605-1.814,6.549-7.635,11.081-16.112,11.944-25.109h0a32.372,32.372,0,0,0-.4-9.058c-1.059-5.658-2.084-11.2-2.839-16.6-1.41-10.15-1.888-19.855.067-29.21h0c1.99-9.536,6.5-18.715,15.114-27.618q1.949-2.023,4.2-4.047a88.539,88.539,0,0,1,23.356-14.757q1.578-.674,3.177-1.349C314.883,73.3,343.31,71.3,369.87,72.623a429.029,429.029,0,0,1,73.688,10.251c1.922.432,3.844.884,5.753,1.349a510.791,510.791,0,0,1,60.7,18.769c51.513,19.376,100.133,46.28,145.556,75.968.445.29.89.58,1.349.877q2.846,1.855,5.658,3.723,5.443,3.608,10.791,7.264l2.408,1.639q1.781,1.214,3.541,2.435l3.615,2.5h0a3.965,3.965,0,0,1,.486.344l3.075,2.131c1.781,1.241,3.548,2.489,5.321,3.743h0l3.8,2.7c.789.567,1.585,1.126,2.374,1.7l4.047,2.954.9.674c.189.135.378.27.56.418l.115.074c10.966,8.046,21.669,16.389,31.7,25.23l1.295,1.147.135.121c1.093.971,2.185,1.956,3.258,2.947,13.1,11.924,24.833,24.738,34.423,38.9C818.475,345.9,805.4,436.486,744.112,490.353Z" transform="translate(-25.44 -72.24)"/><path class="b" d="M1028.653,345.394c.432-1.174-2.792-7.689-2.792-8.012s-3.372-3.945-3.372-5.982-4.4-6.407-4.4-6.407-5.922-2.462-6.569-7.8-6.852-5.449-7.1-5.456c0,0,0-.486.04-1.227,0-1.659-.047-4.62-.8-6.245a6.34,6.34,0,0,0-3.655-3.109s-.675-4.161-1.943-5.443a6.131,6.131,0,0,1-1.5-5.773,7.665,7.665,0,0,0-.843-4.984,5.106,5.106,0,0,0-3.143-2.92h-.115c-3.089-.749-6.549-1.9-6.549-1.9s-.351.067-.87.142l-.432-.142a19.281,19.281,0,0,1-2.253.283,2.8,2.8,0,0,1-1.828-.6c-1.079-1.18-9.793-3.419-11.4-3.419s-6.245-2.138-6.245-2.138l-4.62-3.527c-1.295-.985-3.7-4.991-4.047-5.584l-.054-.074h0a18.321,18.321,0,0,1-.85-2.354c-.047-.148-.081-.3-.128-.459h0a25.715,25.715,0,0,0,2.57-3.156v-.034c.209-.29.4-.607.6-.91q.425-.674.809-1.4c.108-.209.209-.425.317-.627a2.7,2.7,0,0,0,.675-.115l.29-.108a3.421,3.421,0,0,0,.742-.465l.216-.2a5.268,5.268,0,0,0,1.349-2.071c.074-.229.142-.465.2-.674a.99.99,0,0,1,.061-.243c.02-.074.074-.324.1-.492l.041-.27a2.73,2.73,0,0,1,.081-.479.919.919,0,0,0,0-.277c0-.2.054-.4.074-.607.094-.762.175-1.511.337-2.253a.062.062,0,0,0,0-.034,17.231,17.231,0,0,1,1.592-4.1c.674-1.3,1.416-2.583,2.023-3.925h0c.175-.384.344-.776.492-1.167s.3-.863.432-1.3a1.783,1.783,0,0,1,.094-.4,9.438,9.438,0,0,0,.216-.964,3.4,3.4,0,0,0,.081-.425c.081-.445.135-.89.175-1.349a16.554,16.554,0,0,0-1.106-7.506c-.8-2.023-2.023-3.811-2.826-5.814-1.234-3.042-1.558-6.481-3.069-9.381-2.529-4.856-8.5-7.284-13.4-5.456-2.334.863-4.364,2.556-6.744,3.318-3.17,1.018-6.576.25-9.867-.209s-6.933-.492-9.577,1.652c-3.042,2.475-3.878,7.129-6.744,9.84a15.508,15.508,0,0,1-2.246,1.686c-.58.4-1.167.789-1.713,1.241a6.387,6.387,0,0,0-1.99,2.7,2.286,2.286,0,0,0-.074.229,2.121,2.121,0,0,0-.074.277,2.761,2.761,0,0,1-.047.317,1.216,1.216,0,0,0,0,.223,3.883,3.883,0,0,0,0,.486h0v.081a3.112,3.112,0,0,0,.088.54v.148a2.686,2.686,0,0,0,.135.445.329.329,0,0,1,0,.088,4.92,4.92,0,0,0,.2.486.785.785,0,0,0,.094.243.932.932,0,0,1,.094.2,12.772,12.772,0,0,1,1,2.475,2.8,2.8,0,0,1-.1,1.646,2.636,2.636,0,0,1-.432.722,9.016,9.016,0,0,1-.755.836,22.344,22.344,0,0,0-4.863,7.776c-.121.33-.236.674-.344,1h0l.142.04.142.034a4.728,4.728,0,0,0,.8.169,4.9,4.9,0,0,0,.539.061,8.356,8.356,0,0,0,2.2-.175,3.369,3.369,0,0,0,.357-.081h0a.391.391,0,0,0,.108-.034h.067a11.669,11.669,0,0,0,1.767-.614c.135-.061.277-.115.411-.182v2.509a25.379,25.379,0,0,0,12.922,20.631c.384.223.762.432,1.153.627.034.229.067.465.094.674s.054.384.074.58l-.3-.277a1.962,1.962,0,0,0-.8-.162,2.576,2.576,0,0,0-1.281.33A4.72,4.72,0,0,0,919.1,270.3a11.96,11.96,0,0,1-5.274,4.047s-19.558,3.1-20.327,5.659l-9.145.54s-3.23.425-3.547,7.156v.155c-.047.8-.108,1.517-.182,2.158v.094c-.567,4.485-1.848,4.964-1.848,4.964s-3.77,6.623-3.446,10.042a.321.321,0,0,1,0,.081h0a4.4,4.4,0,0,1-.088,1.383,6.069,6.069,0,0,1-2.819,3.635l-.425,6.07s-3.548-.533-4.519,3.635a14.387,14.387,0,0,1-2.7,6.07s-5.915,4.917-6.239,9.078l-3.662,2.246s-8.491-1.922-10.433-5.341c0,0-.229-.229-.594-.56l-.054-.081a.2.2,0,0,0,0,.04c-1.268-1.2-3.972-3.709-3.554-3.136a2.644,2.644,0,0,1,.175,1.727l-.634-.674-1.693-1.888s-2.421-2.266-5.827-4.971h0q-1.167-.931-2.462-1.9c-4.357-3.231-9.6-6.508-13.489-7-.081-.162-.4-1.383-1.167-1.383a1.282,1.282,0,0,0-.836.411,11.222,11.222,0,0,0-.074,16.456l.884.823,2.738,2.563,9.24,8.633c.115.081.223.169.337.243l.546.674.425.546.735.937,1.059,1.349c-.054.142-.115.276-.162.411-.4.971-.742,1.915-1.025,2.779v.094c-.067.216-.135.418-.2.62a.842.842,0,0,1-.067.209c-.068.2-.121.4-.182.587a2.869,2.869,0,0,0-.094.351,1.935,1.935,0,0,1-.068.209c-.3,1.072-.492,1.9-.593,2.354l-.715-.223.674.3a.945.945,0,0,1,0,.115l-.041.216c.209.1.432.2.674.29l.155.067,2.644,1.167h0c.533.236,1.113.486,1.733.769s1.1.492,1.7.749h0c6.906,3.075,16.584,7.493,17.272,8.376,1.072,1.4,8.174,5.449,14.635,2.023s7.844-8.66,7.844-8.66,6.245-8.646,6.461-9.928c.162-.985,3.048-2.1,4.384-2.563l.128-.04.54-.175v1.632a82.78,82.78,0,0,1-.985,14.3.087.087,0,0,0,0,.04,15.55,15.55,0,0,1-1.073,3.574c-2.475,5.234-7.095,28.421-7.095,28.421h.108a3.128,3.128,0,0,1,.809-.04c-.094.432-.155.769-.2,1s-.067.344-.067.344h.081a3.1,3.1,0,0,1,.782-.047,1.643,1.643,0,0,1,.263.034,4.122,4.122,0,0,1-.067.486v.169c0,.027-.041.209-.054.324-.56,3.858-2.178,13.9-2.178,13.9s-.674,5.551-1.726,7.473a18.5,18.5,0,0,0-.9,5.4c0,.337-.047.674-.074,1.025-.175,2.86-.2,5.537-.2,5.537l-.047.175-1.585,7.189q.039.1.088.2h0c.115.216.3.587.56,1.045h0l.081.175a20.084,20.084,0,0,0,3.736,5.261,9.722,9.722,0,0,0,1.133.964h0a1.214,1.214,0,0,1-.047.236c-.013.067-.041.256-.061.378a10.914,10.914,0,0,1-.762,2.7,9.023,9.023,0,0,0-.776,2.941,13.54,13.54,0,0,0-.067,2.185l-.088.4h0c-.236,1.1-.91,4.323-1.275,6.947-.088.6-.168,1.18-.216,1.72a8.341,8.341,0,0,0,0,1.5,12.354,12.354,0,0,1-.135,2.522,5.7,5.7,0,0,1-.088.742c-.364,2.374-.964,4.863-.964,4.863l-1.936,18.581v1.1a2.135,2.135,0,0,1-.041.486c0,.438-.067.958-.115,1.565a5.861,5.861,0,0,1-.041.674,3.534,3.534,0,0,1-.04.641v.351a3.158,3.158,0,0,1-.034.533,2.6,2.6,0,0,0,0,.513v.479c-.061.991-.128,2.064-.175,3.15v1.039a7.793,7.793,0,0,1-.047,1.039v6.866a19.633,19.633,0,0,0,.162,2.145c.074.526.128,1.079.155,1.646v.782a3.733,3.733,0,0,1,0,.391v3.021c-.168,2.32-.486,4.2-.533,4.5h0v.634c0,.169.04.384.061.62v.337h0a1.331,1.331,0,0,0,.041.391c.04.135,0,.128,0,.2,0,.243.04.492.067.755s.061.546.081.83l.04.533c0,.256.054.526.074.789v.27c0,.182.04.357.054.546l.061.83c0,.182.04.371.054.553a1.87,1.87,0,0,1,0,.283l.088,1.093a2.9,2.9,0,0,0,.034.539c0,.283.041.573.068.843s0,.62.047.9a5.781,5.781,0,0,1,.041.823,11.393,11.393,0,0,1,0,2.286c-.175.769-.742,2.92-1.066,5.254,0,.209-.061.418-.081.634a2.28,2.28,0,0,0,0,.378l-.041.506c0,.4-.047.816-.047,1.214a9.355,9.355,0,0,0,.3,2.7,12.767,12.767,0,0,1,.337,1.781.914.914,0,0,0,.034.3c0,.216.047.438.067.674s.034.459.047.674c0,.472.04.958.061,1.45v.978c.047,2.846-.088,5.632-.128,6.346v.175s.674,11.971,1.4,15.809c.094.506.162,1.018.209,1.544a3.442,3.442,0,0,0,.034.587,30.088,30.088,0,0,1-.459,6.636S870.89,590,870.573,590a5.264,5.264,0,0,0-.964,3.183v.054a10.384,10.384,0,0,0,3.541,7.985l.324.317.391-.148c3.156-1.126,6.286-2.3,9.408-3.494,1.659-.641,3.318-1.281,4.97-1.942q6.124-2.421,12.14-4.977h0a.769.769,0,0,1-.384-.486c-.62-1.652.3-6.744.492-7.527s1.936-17.421,1.936-17.421-.674-5.227.216-7.466-1.079-10.906-1.079-10.906a1.928,1.928,0,0,1,.54-2.347c1.214-1.281.755-12.713.755-12.713s-.108-5.773-.108-7.27,1.295-6.947,2.468-8.768.438-7.486.438-7.486h0l.067-.432a4.287,4.287,0,0,1,.095-.6l.1-.573a79.254,79.254,0,0,1,2.091-9.273c1.4-4.485,3.015-12.389,3.015-12.389l9.408-25.23h0l.31-.782.115-.31s4.62,8.552,4.62,16.456c0,0,1.187,9.509.87,12.072s.964,14.635.964,14.635,1.389,17.313,1.389,18.055,1.727,14.062,2.806,16.085-1.079,8.228-1.72,8.869.216,16.348.216,16.348-1.625,12.389-1.942,14.952c-.061.465-.155,1.167-.256,2.023,10.791-5.18,21.481-10.649,31.773-16.591.445-.25.883-.5,1.349-.769L961,545.8s.755-7.156-.108-10.049-1.72-8.43-.533-9.928.108-8.437.108-8.437,0-14.642,1.612-18.27,1.079-26.6,1.079-26.6l.425-15.067s3.433-3.251,2.7-20.091v-.573c3.75-.236,7.978-.371,8.619.155,1.025.823,6.8,4.559,11.27,3.628h0a5.482,5.482,0,0,0,2.064-.857,60.683,60.683,0,0,0,5.4-4.168l-1.713-28.818h0l-.182-3.2c.324.492.607.931.85,1.349.674,1.025,1.045,1.652,1.045,1.652,0-4.485,12.7-19.012,12.7-19.012s11.836-15.276,14.413-17.1,7.641-11.432,7.641-11.432a46.6,46.6,0,0,1,2.583-5.341C1032.113,351.7,1028.221,346.567,1028.653,345.394ZM990.784,365.9a6.7,6.7,0,0,1-1.43,2.88c-.054-.674-.108-1.3-.162-1.976v-.175c-.755-9.4-1.565-20.772-1.194-21.885a26.1,26.1,0,0,0,.445-5.517h0c.047-2.583,0-5.045,0-5.045h0l.121-.169c2.172,6.744,8.909,14.608,8.909,14.608s1.187,3.419,2.583,3.527.856,4.485.856,4.485a5.086,5.086,0,0,0-1.834.674,16.064,16.064,0,0,0-1.9,1.288h0C994.088,360.946,990.858,364.811,990.784,365.9Z" transform="translate(-281.109 -115.609)"/><path class="c" d="M837,416.018s3.925-20.57,16.537-20.678l9.226,18.979-6.2,4.215S843.232,418.959,837,416.018Z" transform="translate(-289.674 -177.426)"/><path class="d" d="M862.736,414.3l-6.178,4.242s-9.4.3-16.119-1.349a18.41,18.41,0,0,1-3.44-1.167,1.247,1.247,0,0,1,.067-.33.46.46,0,0,1,0-.081,46.811,46.811,0,0,1,2.387-7.554c.384-.924.83-1.875,1.3-2.826,1.848-3.554,4.444-7.041,8-8.768a10.94,10.94,0,0,1,4.2-1.1h.56l.209.418,3.116,6.414Z" transform="translate(-289.674 -177.435)"/><path class="c" d="M1025.824,521.741s13.253-1.268,14.419-.317,8.693,5.834,13.151,2.758,1.484-13.785,1.484-14.21-.425-15.586-.425-15.586l-7.952-10.71-9.968-18.763-20.354-2.023.526,29.8-.1,15.269Z" transform="translate(-348.01 -199.418)"/><path class="d" d="M1025.824,521.741s13.253-1.268,14.419-.317,8.693,5.834,13.151,2.758,1.484-13.785,1.484-14.21-.425-15.586-.425-15.586l-7.952-10.71-9.968-18.763-20.354-2.023.526,29.8-.1,15.269Z" transform="translate(-348.01 -199.418)"/><path class="e" d="M842.956,385.1s-1.045,12.936-9.138,13.138a63.431,63.431,0,0,1-5.355-3.676c-7.081-5.294-18.311-15.478-15.208-24.954,4.451-13.57,26.08,11.465,26.08,11.465L841,382.931Z" transform="translate(-281.771 -167.734)"/><path class="d" d="M850.228,393.468s-1.045,12.936-9.139,13.138a63.428,63.428,0,0,1-5.355-3.676l-.674-.883a10.534,10.534,0,0,0,4.417,1.194,5.922,5.922,0,0,0,5.766-3.635,46.792,46.792,0,0,0,2.232-5.132,15.453,15.453,0,0,0,.809-3.183Z" transform="translate(-289.043 -176.107)"/><path class="f" d="M847.034,416.381l-1.814-2.334-6.07-7.857L836,402.177a10.527,10.527,0,0,0,4.411,1.187,5.912,5.912,0,0,0,5.766-3.635,45.537,45.537,0,0,0,2.232-5.132c1-2.86.985-4.33.627-4.829s2.253,1.922,3.507,3.116l.047.04.58.553.223.432,3.069,6.144v.256C856.746,402.258,857.777,414.627,847.034,416.381Z" transform="translate(-289.349 -175.59)"/><path class="g" d="M928.65,681.817a3.086,3.086,0,0,0-.634-.418h-.054c-1.268-.533-.108-7.109.108-7.958s1.909-17.252,1.909-17.252-.634-5.186.216-7.419-1.066-10.791-1.066-10.791a1.983,1.983,0,0,1,.533-2.334c1.167-1.275.742-12.619.742-12.619s-.1-5.719-.1-7.21,1.268-6.886,2.435-8.693.425-7.419.425-7.419h0l.061-.432c.034-.155.061-.357.094-.594l.1-.567a2.761,2.761,0,0,1,.074-.432c.061-.337.128-.674.2-1.106.04-.243.088-.5.142-.755.155-.809.337-1.7.533-2.61.061-.283.128-.573.2-.857s.162-.674.25-1.025c.054-.209.1-.411.162-.62.155-.62.324-1.221.506-1.794,1.349-4.458,2.974-12.3,2.974-12.3l9.853-25.885.115-.31.31.6h0c1.025,2.07,4.242,9.118,4.242,15.721,0,0,1.174,9.442.85,11.978s.958,14.527.958,14.527,1.349,17.171,1.349,17.913,1.7,14,2.758,16.011-1.059,8.167-1.7,8.768.216,16.227.216,16.227-1.592,12.295-1.915,14.837c-.067.607-.2,1.625-.344,2.873l.816-.384.115-.061c10.791-5.18,21.481-10.649,31.773-16.591l.088-16.26s.742-7.109-.1-9.968-1.7-8.376-.54-9.867.115-8.37.115-8.37,0-14.527,1.585-18.129,1.066-26.4,1.066-26.4l.418-14.945s3.46-3.3,2.644-20.509c-.088-1.834-.223-3.824-.411-6-.587-6.495-1.18-12.376-1.72-17.468-.047-.438-.094-.87-.142-1.288-.054-.566-.121-1.126-.175-1.673-.128-1.153-.25-2.259-.371-3.311-.04-.31-.074-.614-.108-.917q-.263-2.266-.492-4.181c-.054-.5-.121-.991-.175-1.457-.088-.674-.169-1.349-.243-1.976a3.364,3.364,0,0,0-.061-.445,5.665,5.665,0,0,0-.094-.776c-.351-2.752-.56-4.256-.56-4.256h-.094l-10.663.094-23.275.223h-.681l-12.14.115h-.742l-5.827.061h-.991l-12.14.115h-.735L916.3,505.79l-10.177,23.329s-.155,2.556-.513,5.052v.148a.487.487,0,0,1-.04.243,1.771,1.771,0,0,0-.061.378,13.1,13.1,0,0,1-.857,3.3,8.239,8.239,0,0,0-.674,2.327,13.642,13.642,0,0,0-.155,2.583h0v.142s-.809,3.676-1.281,6.805c-.088.6-.169,1.18-.216,1.72a10.871,10.871,0,0,0-.094,1.976,11.082,11.082,0,0,1-.074,2.023,5.688,5.688,0,0,1-.088.742c-.331,2.482-1,5.261-1,5.261l-1.915,18.452a.4.4,0,0,1,0,.061v.769a2.141,2.141,0,0,1-.04.486c0,.438-.067.958-.115,1.565a5.9,5.9,0,0,1-.04.674,3.518,3.518,0,0,1-.04.641v.351a3.163,3.163,0,0,1-.034.533,2.605,2.605,0,0,0,0,.513v.479c-.054.991-.121,2.064-.169,3.15v1.039a7.8,7.8,0,0,1-.047,1.039v6.92a18.391,18.391,0,0,0,.162,2.253c.067.5.121,1.012.155,1.538v4.195c-.169,2.32-.486,4.2-.533,4.5h0v.634c0,.169.04.384.061.62v.337h0a1.332,1.332,0,0,0,.04.391c.04.135,0,.128,0,.2,0,.243.04.492.067.755s.054.546.081.83l.041.533c0,.256.054.526.074.789v.27c0,.182.04.357.054.546l.061.83c0,.182.04.371.054.553v.283l.088,1.093a2.9,2.9,0,0,0,.034.539c0,.283.04.573.067.843s0,.62.047.9a5.782,5.782,0,0,1,.04.823,11.993,11.993,0,0,1,0,2.212,51.685,51.685,0,0,0-1.052,5.328c0,.209-.061.418-.081.634a2.287,2.287,0,0,0,0,.378l-.04.506c0,.4-.047.816-.047,1.214a9.3,9.3,0,0,0,.3,2.543,14.27,14.27,0,0,1,.371,2.239c.054.432.088.89.115,1.349s.04.958.061,1.45v.978c.041,3.2-.135,6.266-.135,6.266a.687.687,0,0,0,0,.081v.054c.067,1.349.674,11.985,1.349,15.559a16.18,16.18,0,0,1,.236,1.915,3.429,3.429,0,0,0,.034.587,30.9,30.9,0,0,1-.479,6.2s-.991,8.235-1.308,8.235a5.757,5.757,0,0,0-.951,3.689v.054c0,2.064.8,4.721,3.5,7.419l.755.755c3.156-1.126,6.286-2.3,9.408-3.494,1.659-.641,3.318-1.281,4.971-1.942q6.124-2.421,12.14-4.977Z" transform="translate(-309.417 -206.499)"/><path class="e" d="M1008.782,296.239,993.089,313s-20.139-8.093-18.021-10.791c.823-1.066.674-4.431.216-8.147-.742-5.874-2.334-12.639-2.334-12.639s35.2-5.726,32.224.216a9.741,9.741,0,0,0-.223,7.041A26.7,26.7,0,0,0,1008.782,296.239Z" transform="translate(-333.935 -139.529)"/><path class="d" d="M1005.174,281.6c-1.079,2.165-1.6,2.374-.924,4.721-4.6,4.937-10.454,10.339-17.731,10.339a25.116,25.116,0,0,1-11.236-2.63c-.742-5.874-2.334-12.639-2.334-12.639S1008.149,275.657,1005.174,281.6Z" transform="translate(-333.935 -139.517)"/><path class="e" d="M1006.125,254.589a25.237,25.237,0,0,1-50.474,0q0-.182,0-.364a25.236,25.236,0,1,1,50.47.364Z" transform="translate(-328.303 -123.326)"/><path class="d" d="M1001.638,506.951c-3.372,0-14.473.121-26.91.317h-.155l-4.107.067h-.128c-14.75.236-29.284-2.644-35.118-2.1-12.41,1.167,4.451-11.465,4.451-11.465a103.862,103.862,0,0,0,28.259,2.86l3.568-.189c11.27-.634,22.6-1.693,28.522-3.473C1000.43,496.261,1001.031,501.029,1001.638,506.951Z" transform="translate(-320.168 -209.211)"/><path class="h" d="M1001.638,506.011c-3.372,0-14.473.115-26.91.317h-.155l-4.107.067h-.128c-14.75.236-29.284-2.644-35.118-2.1-12.41,1.16,4.451-11.465,4.451-11.465a103.7,103.7,0,0,0,28.259,2.853l3.568-.182c11.27-.634,22.6-1.7,28.522-3.473C1000.43,495.321,1001.031,500.1,1001.638,506.011Z" transform="translate(-320.168 -208.905)"/><path class="d" d="M966.318,313.151l-19.511,9.118L931.76,438.663s8.9-4.047,13.994-1.484,20.779.216,20.779.216,11.465-.674,13.145.634,21.636-5.3,21.636-5.3,3.6-8.059.843-9.327.85-13.806.85-13.806l-1.693-83.974-3.372-10.791-9.118-5.51-9.328,7.419-4.451.641Z" transform="translate(-320.525 -149.42)"/><path class="f" d="M966.318,311.247l-19.5,9.118L931.76,436.786s8.9-4.047,13.994-1.484,20.779.209,20.779.209,11.465-.634,13.145.634,21.636-5.3,21.636-5.3,3.6-8.053.843-9.327.85-13.785.85-13.785l-1.693-83.974-3.372-10.791-9.118-5.517-9.328,7.419-4.451.634Z" transform="translate(-320.525 -148.811)"/><path class="d" d="M975.228,320.28s5.625,6.677,5.517,8.059-.317,4.66-.317,4.66l-4.208,8.592s-2.334,10.71-2.334,12.936-3.709,21.521-3.709,21.521l-4.451,29.675L960.1,444.638l5.726,9.86,6.785-5.726,9-69.332,1.909-13.677s2.023-24.6,2.023-27.139a86.693,86.693,0,0,0-1.167-9.226s1.383-6.36,7.109-7.844-.425-.324-.425-.324l-3.284-2.651-2.866,1.167S976.927,317.312,975.228,320.28Z" transform="translate(-329.752 -152.435)"/><path class="i" d="M974.268,319.34s5.618,6.677,5.517,8.053-.324,4.667-.324,4.667l-4.242,8.592s-2.333,10.7-2.333,12.929-3.709,21.528-3.709,21.528l-4.458,29.675L959.1,443.691l5.726,9.86,6.785-5.726,9-69.325,1.909-13.677s2.023-24.6,2.023-27.146a86.256,86.256,0,0,0-1.167-9.22s1.349-6.367,7.1-7.85-.418-.317-.418-.317l-3.291-2.651-2.86,1.167S975.968,316.365,974.268,319.34Z" transform="translate(-329.426 -152.129)"/><path class="d" d="M974.042,303.65s-.85.634-1.059,4.876-3.183,13.785-3.183,13.785,11.027-7.635,16.544-6.785Z" transform="translate(-332.91 -147.574)"/><path class="f" d="M974.042,301.76s-.85.641-1.059,4.876-3.183,13.785-3.183,13.785,11.027-7.635,16.544-6.785Z" transform="translate(-332.91 -146.959)"/><path class="d" d="M1012.36,298.62,995,313.889s14.635,8.693,16.544,10.791,3.817-20.779,3.817-20.779Z" transform="translate(-341.114 -145.937)"/><path class="f" d="M1013.287,296.73,995.9,312s14.628,8.693,16.537,10.791S1016.254,302,1016.254,302Z" transform="translate(-341.407 -145.321)"/><path class="d" d="M952.582,303.572s-1.909-.958-3.709,1.8a12.069,12.069,0,0,1-5.193,4.047s-19.3,3.075-20.044,5.618l-9.01.526s-3.183.384-3.48,7.129S909.122,330,909.122,330s-3.716,6.576-3.372,9.968-2.866,5.092-2.866,5.092l13.28,34.423s.425,14.21-2.023,19.4-7,28.2-7,28.2,1.909-.425,1.8.85-2.333,15.161-2.333,15.161-.634,5.51-1.693,7.419-1.167,11.877-1.167,11.877L902,469.611s4.047,9.01,10.184,7.736,17.279-25.338,17.279-25.338l7.1-25.972,5.517-25.662,1.592-17.387,2.543-38.49,3.709-25.446S954.086,305.373,952.582,303.572Z" transform="translate(-310.836 -147.497)"/><path class="c" d="M951.676,301.684s-1.909-.951-3.709,1.807a12.07,12.07,0,0,1-5.2,4.047s-19.3,3.075-20.037,5.618l-9.01.533s-3.183.425-3.5,7.1-2.023,7.318-2.023,7.318-3.709,6.576-3.372,9.968-2.86,5.085-2.86,5.085L915.2,377.6s.425,14.21-2.023,19.4-6.994,28.2-6.994,28.2,1.909-.425,1.8.85-2.334,15.161-2.334,15.161-.634,5.51-1.693,7.419-1.167,11.877-1.167,11.877l-1.686,7.243s4.047,9.01,10.177,7.742,17.286-25.345,17.286-25.345l7.1-25.972,5.517-25.628,1.585-17.387,2.549-38.483,3.709-25.446S953.159,303.491,951.676,301.684Z" transform="translate(-310.543 -146.883)"/><path class="d" d="M862.417,413.976l-6.178,4.242s-9.4.3-16.119-1.349l-3.426-1.517-.674-.3.708.223c3.548,1.052,6.319,1.032,8.484.3,8.707-2.927,7.742-17.3,7.419-20.55a2.927,2.927,0,0,0-.067-.614.187.187,0,0,1,0-.04l.054.081a3.85,3.85,0,0,0,.4.56,4.479,4.479,0,0,0,.391.411h0l3.069,6.144v.256Z" transform="translate(-289.355 -177.11)"/><path class="c" d="M884.035,362l-2.967.85-.425,6.07s-3.5-.526-4.451,3.608a14.743,14.743,0,0,1-2.651,6.07s-5.834,4.876-6.151,9.01l-3.608,2.226s-8.376-1.909-10.285-5.3c0,0,3.817,27.355-16.537,20.678,0,0,22.8,9.968,23.855,11.344s8.059,5.4,14.419,2.023,7.742-8.693,7.742-8.693,6.151-8.586,6.36-9.86,4.984-2.758,4.984-2.758l9.118-22.047Z" transform="translate(-289.661 -166.571)"/><path class="d" d="M1016.1,310.724l3.075-13.994s1.349,4.559,2.758,5.618,4.559,3.5,4.559,3.5,4.559,2.124,6.144,2.124,10.184,2.226,11.243,3.372,5.3.317,5.3.317,3.5,1.167,6.576,1.909,4.559,5.834,3.918,7.844a6.13,6.13,0,0,0,1.484,5.726c1.275,1.275,1.909,5.4,1.909,5.4a6.219,6.219,0,0,1,3.608,3.075c1.059,2.334.742,7.419.742,7.419l-15.8,22.256s.209,8.586-.425,10.494,2.226,34.356,2.226,34.356l3.284,55.769a58.612,58.612,0,0,1-5.3,4.134c-.958.425-1.909-19.72-1.909-20.462s-24.489-36.689-24.489-36.689-3.291-5.3-3.291-6.468-3.075-11.87-3.075-11.87L1014,373.919Z" transform="translate(-347.3 -145.321)"/><path class="c" d="M1069.346,341.836c0,.728-.041,1.214-.041,1.214l-15.788,22.256h0s.216,8.592-.418,10.5c-.371,1.106.438,12.517,1.187,21.885.533,6.744,1.039,12.463,1.039,12.463l1.389,23.659,1.888,32.116a59.351,59.351,0,0,1-5.294,4.134c-.951.425-1.909-19.72-1.909-20.469s-24.509-36.7-24.509-36.7-3.284-5.308-3.284-6.475-3.075-11.877-3.075-11.877l-4.66-20.671,2.118-63.194,1.8-13.994s2.651,4.566,4.047,5.618,4.552,3.5,4.552,3.5,4.559,2.124,6.151,2.124,10.177,2.226,11.243,3.372,5.3.317,5.3.317,3.494,1.167,6.569,1.909,4.559,5.834,3.925,7.844a6.111,6.111,0,0,0,1.484,5.726c1.268,1.268,1.909,5.4,1.909,5.4a6.239,6.239,0,0,1,3.608,3.075C1069.3,337.244,1069.366,340.184,1069.346,341.836Z" transform="translate(-347.909 -145.308)"/><path class="d" d="M918.016,783.872c-1.652.674-3.311,1.3-4.971,1.942-5.2-1.517-10.056-3.3-10.056-3.3a138.061,138.061,0,0,1,15.026,1.362Z" transform="translate(-311.159 -303.476)"/><path class="d" d="M999.67,700.6s12.619,2.968,13.36,4.984Z" transform="translate(-342.635 -276.809)"/><path class="d" d="M926.069,714.12s-6.576,1.909-.209,5.726S926.069,714.12,926.069,714.12Z" transform="translate(-317.7 -281.21)"/><path class="d" d="M970.74,561.767c.742,0,12.3-3.817,16.328-2.118a26.788,26.788,0,0,0,9.017,1.693Z" transform="translate(-333.216 -230.778)"/><path class="d" d="M965.74,578.174l-.115,1.052-9.887,25.858s-1.592,7.844-2.974,12.295a80.6,80.6,0,0,0-2.064,9.206l8.768-54.265Z" transform="translate(-326.692 -235.045)"/><path class="g" d="M992.563,508.011l-4.107.067h-.128l-2.408-10.69c1.18-.054,2.374-.115,3.568-.189Z" transform="translate(-338.158 -210.588)"/><path class="e" d="M1049.349,489.09l-2.637,2.178-8.788,7.264s-23.855,12.727-30.424.634c-5.793-10.649,21.251-18.25,27.766-19.909.884-.223,1.389-.337,1.389-.337Z" transform="translate(-344.921 -204.637)"/><path class="d" d="M918.87,339.49s4.66,2.124,5.719,5.092S918.87,339.49,918.87,339.49Z" transform="translate(-316.329 -159.243)"/><path class="d" d="M895.212,386.66s-6.785,8.269-4.047,11.465S895.212,386.66,895.212,386.66Z" transform="translate(-307.097 -174.6)"/><path class="d" d="M1074.156,346.41s-6.36.634-6.576,6.151Z" transform="translate(-364.744 -161.496)"/><path class="d" d="M989.92,465.437c.674-.634,15.269-22.256,18.662-20.354Z" transform="translate(-339.46 -193.582)"/><path class="d" d="M1006.125,254.6a25.149,25.149,0,0,1-2.988,11.91h-.189c-1.6-.337-2.428-2.2-3.649-3.372a4.971,4.971,0,0,0-5.726-.8,5.807,5.807,0,0,0-2.812,5.443c-.809-3.372-.553-7.007-1.349-10.406s-3.163-6.845-6.414-6.906c-1.4,0-3.035.519-4.047-.533-.614-.634-.735-1.632-1.194-2.4-2.327-3.757-9.395-1.855-12.281.074s-6.238,5-9.826,6.657a25.236,25.236,0,1,1,50.47.364Z" transform="translate(-328.303 -123.339)"/><path class="j" d="M974.649,240.3c.459.769.58,1.767,1.194,2.4,1.012,1.045,2.644.506,4.047.533,3.251.054,5.625,3.5,6.414,6.9s.533,7.014,1.349,10.406a5.807,5.807,0,0,1,2.812-5.436,4.957,4.957,0,0,1,5.719.8c1.221,1.16,2.023,3.021,3.655,3.372s3.143-1.2,3.723-2.887.533-3.534.91-5.281c.722-3.311,2.88-6.023,4.047-9.166a16.591,16.591,0,0,0-.108-11.843c-.8-2.023-1.976-3.784-2.785-5.773-1.214-3.021-1.538-6.427-3.021-9.307-2.5-4.822-8.376-7.23-13.205-5.4-2.307.87-4.31,2.549-6.65,3.3-3.129,1-6.481.25-9.725-.2s-6.832-.492-9.442,1.639c-3,2.455-3.824,7.068-6.643,9.766-1.187,1.133-2.657,1.855-3.9,2.9a5.345,5.345,0,0,0-2.185,4.3c.189,2.2,2.34,4.195,1.544,6.225a4.917,4.917,0,0,1-1.18,1.551,22.257,22.257,0,0,0-5.132,8.734c5.679,1.774,11.816-4.485,16.261-7.419C965.261,238.442,972.329,236.533,974.649,240.3Z" transform="translate(-325.187 -116.762)"/><path class="d" d="M1062.93,489.087l-2.637,2.178c-2.327-3.878-11.883-11.62-11.883-11.62l.411-.4c.884-.223,1.389-.337,1.389-.337Z" transform="translate(-358.503 -204.633)"/><path class="f" d="M1065.786,483.551s-.951,2.361-1.929,4.4-2.023,3.891-2.1,2.388c-.108-2.974-12.4-12.942-12.4-12.942l1.666-1.619,1.936-1.882Z" transform="translate(-358.809 -203.002)"/><path class="d" d="M1066.26,458.94l1.389,23.659c-3.291-5.119-12.335-18.25-18.149-17.825l14.1-16.186a18.136,18.136,0,0,0,1.619-2.077C1065.754,453.241,1066.26,458.94,1066.26,458.94Z" transform="translate(-358.858 -194.085)"/><path class="d" d="M1066.6,483.551s-.951,2.361-1.929,4.4c-3.7-5.072-8.768-11.054-12.814-12.173l1.936-1.882Z" transform="translate(-359.626 -203.002)"/><path class="c" d="M1076.746,361l3.817,2.967s6.36.108,6.994,5.4,6.468,7.742,6.468,7.742,4.35,4.343,4.35,6.36,3.284,5.618,3.284,5.935,3.183,6.785,2.758,7.952,3.372,6.259,2.226,8.167a46.826,46.826,0,0,0-2.542,5.3s-4.984,9.543-7.533,11.344-14.2,16.962-14.2,16.962-12.511,14.419-12.511,18.884c0,0-12.194-20.361-19.4-19.828l14.1-16.22s2.435-2.651,2.543-4.242,6.785-8.909,9.968-9.226c0,0,.526-4.35-.85-4.451s-2.542-3.5-2.542-3.5-9.334-11.027-9.442-18.028S1076.746,361,1076.746,361Z" transform="translate(-359.167 -166.246)"/><path class="d" d="M1094.261,376s-8.909,6.569-7,8.693S1094.261,376,1094.261,376Z" transform="translate(-371.064 -171.129)"/><path class="d" d="M1098.4,415.073s16.537-5.3,18.21,0Z" transform="translate(-374.778 -183.083)"/><path class="d" d="M924.111,374.08s0,24.172-2.07,26.559S924.111,374.08,924.111,374.08Z" transform="translate(-317.172 -170.504)"/><path class="d" d="M1067.11,385.63l3.075,8.639S1071.406,385.792,1067.11,385.63Z" transform="translate(-364.591 -174.264)"/><g class="k" transform="translate(620.92 112.622)"><path d="M955.1,245.29c.776-1.99-1.254-3.939-1.524-6.07a4.046,4.046,0,0,0-.337,1.915c.135,1.612,1.349,3.109,1.639,4.6a2.7,2.7,0,0,0,.222-.445Z" transform="translate(-948.433 -239.22)"/><path d="M987.942,271.354c-.762-3.372-.54-6.886-1.308-10.224s-3.163-6.852-6.414-6.906c-1.4,0-3.035.513-4.047-.533-.614-.634-.735-1.632-1.194-2.4-2.32-3.757-9.388-1.855-12.281.074-4.337,2.88-10.292,8.909-15.856,7.547-.263.641-.512,1.288-.722,1.956,5.679,1.774,11.816-4.485,16.26-7.419,2.893-1.922,9.955-3.831,12.281-.067.458.769.58,1.767,1.194,2.4,1.012,1.045,2.644.506,4.047.533,3.251.054,5.625,3.5,6.414,6.9s.533,7.014,1.349,10.406A5.76,5.76,0,0,1,987.942,271.354Z" transform="translate(-946.12 -242.447)"/><path d="M1024.089,275.288c-.58,1.686-2.091,3.231-3.723,2.887s-2.428-2.2-3.649-3.372a4.977,4.977,0,0,0-5.726-.8,5.767,5.767,0,0,0-2.812,5.132,5.537,5.537,0,0,1,2.5-3.069,4.957,4.957,0,0,1,5.719.8c1.221,1.16,2.023,3.021,3.655,3.372s3.143-1.2,3.723-2.887a14.835,14.835,0,0,0,.58-3.048,9.492,9.492,0,0,1-.263.978Z" transform="translate(-966.323 -250.361)"/><path d="M1037.057,253.637c-1.194,3.143-3.372,5.854-4.047,9.159-.148.674-.229,1.349-.31,2.023.722-3.291,2.873-6,4.047-9.132a15.993,15.993,0,0,0,.978-4.4A15.344,15.344,0,0,1,1037.057,253.637Z" transform="translate(-974.308 -243.15)"/></g><circle class="l" cx="0.263" cy="0.263" r="0.263" transform="translate(530.182 199.354)"/><path class="i" d="M497.7,586.133s7.419-5.321,15.128-2.023c0,0-2.158,4.573-11.735,4.512Z" transform="translate(-179.209 -238.532)"/><path class="i" d="M496.179,588.09s-1.983,8.923,4.047,14.709c0,0,3.372-3.777-.452-12.565Z" transform="translate(-178.612 -240.179)"/><path class="i" d="M481.75,573.162s.277-7.533,17.333-5.692c0,0,.27,4.849-5.6,7.372S484.819,575.536,481.75,573.162Z" transform="translate(-174.016 -233.371)"/><path class="i" d="M478.669,576s-7.081,2.576-.081,18.243c0,0,4.721-1.241,5.288-7.6S481.866,578.212,478.669,576Z" transform="translate(-171.981 -236.243)"/><path class="i" d="M465.346,555.111s-1.443-12.322,15.944-11.722c0,0,1.659,11.142-12.767,14.574Z" transform="translate(-168.666 -225.619)"/><path class="i" d="M447.58,535.357s1.841-14.1,19.329-10.589c0,0,.526,12.14-16.375,13.819Z" transform="translate(-162.892 -219.38)"/><path class="i" d="M434.35,514.548s3.453-13.826,20.779-10.366c0,0-3.615,12.423-19.559,12.814Z" transform="translate(-158.584 -212.68)"/><path class="i" d="M421.76,493.936s3.372-14.311,20.078-10.69c0,0-5.018,13.664-18.884,13.064Z" transform="translate(-154.485 -205.854)"/><path class="i" d="M413.39,472.785s2.327-17.421,17.947-14.2c0,0-3.885,15.93-16.7,16.672Z" transform="translate(-151.76 -197.888)"/><path class="i" d="M405.35,449.435s2.92-17.6,18.736-13.118c0,0-5.5,16.733-17.535,15.512Z" transform="translate(-149.143 -190.529)"/><path class="i" d="M400.08,425.47s5.031-17.677,17.144-17.67c0,0-5.126,18.662-16,21.13Z" transform="translate(-147.427 -181.482)"/><path class="i" d="M396.45,402.625s5.4-21.251,15.3-20.01c0,0-3.676,16.227-14.837,23.268Z" transform="translate(-146.245 -173.266)"/><path class="i" d="M393.86,377.283S399,359.546,408.7,358.48c0,0-3.3,17.38-14.44,23.342Z" transform="translate(-145.402 -165.425)"/><path class="i" d="M391.19,353.306s6.576-17.8,12.983-18.446c0,0-2.489,17.38-12.234,21.3Z" transform="translate(-144.533 -157.735)"/><path class="i" d="M389.13,329.556s3.73-19.215,10.076-21.036c0,0-.277,15.606-9.375,22.432Z" transform="translate(-143.862 -149.16)"/><path class="i" d="M384.42,301.716s4.107-15.357,9.213-17.866c0,0-.344,17.926-7.864,21.528Z" transform="translate(-142.329 -141.128)"/><path class="i" d="M379.759,278.168,377.79,251.44s10.46,19.828,2.839,31.4Z" transform="translate(-140.17 -130.576)"/><path class="i" d="M363.522,242.264S355.793,223,354.08,221.97c0,0,14.163,12.14,13.489,28.508Z" transform="translate(-132.451 -120.982)"/><path class="i" d="M459.154,560.663S446.8,559.53,447.83,576.89c0,0,11.182,1.349,14.258-13.124Z" transform="translate(-162.953 -231.245)"/><path class="i" d="M440.64,540.08s-14.21.5-12.369,18.21c0,0,12,1.673,15.3-14.986Z" transform="translate(-156.551 -224.548)"/><path class="i" d="M424.176,521.087s-13.131-5.557-20.786,10.366c0,0,12.106,4.586,22.02-7.891Z" transform="translate(-148.505 -218.059)"/><path class="i" d="M411.384,499.054s-13.455-5.928-20.624,9.617c0,0,13.941,4.208,21.8-7.243Z" transform="translate(-144.393 -210.83)"/><path class="i" d="M402.633,478.018s-13.172-11.654-22.843,1.012c0,0,13.367,9.489,23.531,1.666Z" transform="translate(-140.821 -202.75)"/><path class="i" d="M395.38,453.1s-13.266-11.931-22.83,1.443c0,0,14.743,9.638,23.383,1.14Z" transform="translate(-138.464 -194.637)"/><path class="i" d="M391.426,427.443s-10.447-15.121-21.906-11.223c0,0,10.845,16.024,21.932,14.837Z" transform="translate(-137.478 -184.014)"/><path class="i" d="M387.249,404.479s-10.676-19.154-19.929-15.4c0,0,7.729,14.736,20.314,18.675Z" transform="translate(-136.761 -175.228)"/><path class="i" d="M385.023,378.583S374.233,363.6,364.75,365.849c0,0,8.93,15.262,21.433,17.144Z" transform="translate(-135.925 -167.75)"/><path class="i" d="M385.526,353.5s-8.565-16.942-15.006-16.861c0,0,4.458,16.982,14.581,19.768Z" transform="translate(-137.803 -158.315)"/><path class="i" d="M381.825,330.967s-9.442-17.131-16.065-16.908c0,0,5.072,14.763,15.829,18.459Z" transform="translate(-136.254 -150.962)"/><path class="i" d="M380.472,304.3s-7.129-14.2-12.632-15.627c0,0,3.959,17.488,12.059,19.491Z" transform="translate(-136.931 -142.697)"/><path class="i" d="M372.012,279.825,356.46,258s4.613,21.933,17.859,26Z" transform="translate(-133.226 -132.712)"/><path class="i" d="M354.4,248.64s-17.535-11.135-18.21-13.01c0,0,9.348,16.186,25.561,18.473Z" transform="translate(-126.627 -125.429)"/><path class="i" d="M349.142,238.485s-20.327-18.1-25.332-17.886c0,0,16.186.121,25.763,16.861Z" transform="translate(-122.596 -120.535)"/><path class="m" d="M377.917,292.846l-.715.121c-4.788-28.7-10.791-45.538-16.962-47.413l.209-.674C366.971,246.849,373.007,263.447,377.917,292.846Z" transform="translate(-134.456 -128.441)"/><path class="m" d="M394.04,383.723l-1.072.135c-.33-2.7-.607-5.436-.836-8.174-1.942-23.834-4.377-45.693-7.1-62.048l.594-.8c2.7,16.382,5.645,38.888,7.594,62.722C393.433,378.321,393.717,381.066,394.04,383.723Z" transform="translate(-142.527 -150.566)"/><path class="m" d="M485.394,544.374c-.2-.081-19.518-7.83-40.014-27.315a156.724,156.724,0,0,1-29.979-39.2c-9.826-18.21-16.261-40.817-18.972-62.911l1.147.486c6.07,49.584,30.039,82.726,48.755,100.531,20.294,19.309,39.4,26.977,39.589,27.065Z" transform="translate(-146.239 -183.81)"/><g class="n" transform="translate(297.88 67.341)"><path class="i" d="M548.25,573.865s8.673-2.866,15.04,2.556c0,0-3.419,3.73-12.544.816Z" transform="translate(-493.547 -302.642)"/><path class="i" d="M545.749,574.25s-4.546,7.931-.5,15.256c0,0,4.337-2.61,3.3-12.14Z" transform="translate(-492.024 -303.014)"/><path class="i" d="M536.46,556.863s2.509-7.115,18.21-.277c0,0-1.187,4.721-7.54,5.4S538.686,560.04,536.46,556.863Z" transform="translate(-489.708 -296.296)"/><path class="i" d="M532.176,558s-7.533.357-5.5,17.394c0,0,4.842.216,7.3-5.679S534.57,561.008,532.176,558Z" transform="translate(-486.409 -297.723)"/><path class="i" d="M525.35,535.145s2.293-12.194,18.709-6.448c0,0-1.733,11.128-16.524,10.117Z" transform="translate(-486.091 -287.682)"/><path class="i" d="M514.34,511.033s5.955-12.915,21.582-4.357c0,0-3.1,11.715-19.741,8.316Z" transform="translate(-482.507 -280.06)"/><path class="i" d="M507.93,487.4s7.419-12.173,22.931-3.716c0,0-7.149,10.791-22.486,6.448Z" transform="translate(-480.42 -272.556)"/><path class="i" d="M502,463.938s7.459-12.666,22.357-4.235c0,0-8.855,11.553-21.933,6.852Z" transform="translate(-478.489 -264.778)"/><path class="i" d="M499.83,441.233s7.419-15.95,21.339-8.215c0,0-8.451,14.048-20.907,10.946Z" transform="translate(-477.783 -256.344)"/><path class="i" d="M499.2,416.521s8.026-15.93,21.791-6.947c0,0-10.231,14.338-21.366,9.557Z" transform="translate(-477.578 -248.506)"/><path class="i" d="M500.76,392.544s10.063-15.377,21.622-11.769c0,0-10.447,16.294-21.582,15.417Z" transform="translate(-478.086 -239.846)"/><path class="i" d="M503.489,369.408s11.465-18.688,20.557-14.547c0,0-8.343,14.392-21.076,17.8Z" transform="translate(-478.805 -231.393)"/><path class="i" d="M508.525,344.56s10.184-15.4,19.747-13.536c0,0-8.316,15.613-20.732,17.994Z" transform="translate(-480.293 -223.777)"/><path class="i" d="M513.558,320.654s11.58-15.047,17.886-13.752c0,0-7.547,15.849-18.014,16.7Z" transform="translate(-482.211 -215.948)"/><path class="i" d="M518.35,296.983s9.273-17.232,15.883-17.083c0,0-4.91,14.837-15.633,18.628Z" transform="translate(-483.812 -207.182)"/><path class="i" d="M522.6,268.878s8.484-13.435,14.109-14.318c0,0-5.665,17.016-13.913,18.21Z" transform="translate(-485.196 -198.933)"/><path class="i" d="M524.52,243.684l6.07-26.094s4.094,22.034-6.609,30.842Z" transform="translate(-485.645 -186.897)"/><path class="i" d="M522.888,204.579s-1.646-20.7-2.988-22.189c0,0,9.934,15.822,4.384,31.226Z" transform="translate(-484.317 -175.437)"/><path class="i" d="M517.163,538.361S505.7,533.592,501.53,550.5c0,0,10.258,4.647,17.535-8.289Z" transform="translate(-478.336 -291.127)"/><path class="i" d="M505.372,513.487s-13.711-3.75-17.232,13.731c0,0,10.96,5.173,19.073-9.752Z" transform="translate(-473.977 -283.121)"/><path class="i" d="M496.221,490.7s-10.879-9.213-22.931,3.716c0,0,10.191,7.978,23.369-.985Z" transform="translate(-469.142 -274.778)"/><path class="i" d="M490.646,465.764s-11.074-9.665-22.546,3.062c0,0,12.052,8.161,22.971-.438Z" transform="translate(-467.453 -266.55)"/><path class="i" d="M489.248,442.572s-9.112-15.047-22.108-5.834c0,0,9.934,13.044,21.966,8.592Z" transform="translate(-467.14 -257.272)"/><path class="i" d="M489.656,416.659s-9.118-15.33-22.256-5.4c0,0,11.209,13.59,21.987,8.046Z" transform="translate(-467.225 -248.86)"/><path class="i" d="M494.336,389.96s-5.47-17.535-17.576-17.232c0,0,5.591,18.533,16.524,20.725Z" transform="translate(-470.272 -237.403)"/><path class="i" d="M497.216,366.72s-4.5-21.46-14.446-20.631c0,0,2.994,16.368,13.839,23.868Z" transform="translate(-472.229 -228.724)"/><path class="i" d="M502.833,341.21S496.985,323.674,487.26,323c0,0,3.993,17.238,15.364,22.749Z" transform="translate(-473.69 -221.215)"/><path class="i" d="M510.795,317.33s-3.136-18.722-9.314-20.55c0,0-.8,17.535,8.046,23.214Z" transform="translate(-478.314 -212.678)"/><path class="i" d="M514.025,294.717s-3.932-19.167-10.305-20.907c0,0,.445,15.6,9.624,22.33Z" transform="translate(-479.049 -205.2)"/><path class="i" d="M520.563,268.849s-2.583-15.681-7.419-18.689c0,0-1.423,17.879,5.712,22.2Z" transform="translate(-482.08 -197.5)"/><path class="i" d="M519.751,242.97l-8.356-25.46s-2.124,22.317,9.314,30.14Z" transform="translate(-481.497 -186.871)"/><path class="i" d="M512.3,207.955s-13.428-15.849-13.489-17.845c0,0,4.107,18.21,18.884,25.237Z" transform="translate(-477.451 -177.95)"/><path class="i" d="M510.274,196.7s-14.021-23.329-18.884-24.617c0,0,15.431,4.937,19.559,23.767Z" transform="translate(-475.035 -172.08)"/><path class="m" d="M521.486,257.177l-.715-.1c3.966-28.818,3.224-46.691-2.091-50.313l.411-.594C524.723,210.008,525.552,227.637,521.486,257.177Z" transform="translate(-483.92 -183.179)"/><path class="m" d="M503.406,348.792l-1.066-.2c.486-2.664,1.032-5.4,1.639-8.053,5.234-23.329,9.442-44.924,11.674-61.373l.8-.58c-2.266,16.449-6.178,38.807-11.425,62.162C504.438,343.45,503.884,346.141,503.406,348.792Z" transform="translate(-478.6 -206.756)"/><path class="m" d="M547.762,529.267c-.162-.128-16.308-13.286-30.073-37.977A156.519,156.519,0,0,1,500.7,444.943c-3.966-20.314-3.372-43.838.6-65.7l.951.8c-8.936,49.153,4.047,87.919,16.638,110.485,13.63,24.468,29.587,37.485,29.749,37.613Z" transform="translate(-477.189 -239.525)"/></g><path class="o" d="M253.524,444.587a25.625,25.625,0,0,1-4.917,1.47,49.415,49.415,0,0,1-8.923.843c.088.789.155,1.524.223,2.192.162,1.834.256,3.1.256,3.1L237,451.972l-26.087-1.781-15.256-2.259a28.461,28.461,0,0,0,2.394,2.812,12.621,12.621,0,0,0,3.048,2.367s13.765,11.148,16.146,11.25c.337,0,.445.337.391.87,5.793,0,23.807.843,18.81,10.872a7.992,7.992,0,0,1-4.094,3.986c-5.78,2.448-14.5-1.956-18.992-4.66-.438.857-.857,1.652-1.227,2.334-.762,1.437-1.295,2.387-1.295,2.387l-.452-.324-23.147-16.483-5.072-4.3a17.694,17.694,0,0,1-4.391-.762h0l-.674-.216a1.292,1.292,0,0,0-.074.182,9.44,9.44,0,0,0-.411,1.619v.243a18.957,18.957,0,0,0-.189,1.9c0,.432-.034.89-.034,1.349-.04,9.186,3.642,23.949,3.642,23.949s9.543,24.34,6.158,29.958h0a2.529,2.529,0,0,1-.674.729,6.7,6.7,0,0,0-2.28,4.229c-1.261,5.962.951,15.06.951,15.06s-.2.337-.546.863a26.084,26.084,0,0,1-2.509,3.372c-.142.162-.29.33-.445.486a11.738,11.738,0,0,1-1.349,1.214c.088.263.182.533.277.823s.216.742.31,1.146a16.443,16.443,0,0,1-.843,9.921,27.332,27.332,0,0,0-1.7,7.129h0a54.534,54.534,0,0,0,.344,13.421c-.1-.054-.189-.108-.29-.155q-11.189-5.847-22.061-12.214c-2.124-1.227-4.235-2.482-6.333-3.743q-3.871-2.334-7.709-4.721-5.058-3.156-10.116-6.468l-1.578-1.052-.607-.411c-.857-.573-1.7-1.147-2.549-1.727A129.533,129.533,0,0,1,116.952,531c-.479-.857-.91-1.673-1.268-2.421v-.04l-.229-.492-.951-.337h0c-1.787-.627-2.92-1.066-2.92-1.066h0a33.089,33.089,0,0,0,1.174-9.24,27.981,27.981,0,0,0-8.653-20.651c-10.224-9.665-11.634-19.208-11.782-22.87V473.2a8.451,8.451,0,0,1,.04-.924l.782-.749c-1.983-.4-3.844-.58-3.844-.58s6.785-24.549,18.21-32.744c5.665-4.047,10.38-10.791,13.711-16.578a251.254,251.254,0,0,1,20.422-29.938l2.057-2.6.6-.762.128-.155.162-.216q-.418-.634-.85-1.254l-.189-.277a6.865,6.865,0,0,1-1.544-4.31v-.391a5.184,5.184,0,0,1,.148-.8.764.764,0,0,0,.081.121c.964-2.806,4.681-4.047,7.419-5.6,6.454-3.628,9.206-11.566,10.589-18.952,1.072-5.746,1.963-12.187,6.414-15.876,2.873-2.374,6.744-3.156,9.651-5.51a18.088,18.088,0,0,0,4.1-5.267c.674-1.147,1.254-2.334,1.882-3.48,2.873-5.193,6.65-10.022,11.647-13.131s11.337-4.316,16.814-2.226c2.111.8,4.047,2.023,6.07,2.92a23.649,23.649,0,0,0,3.858,1.2c4.121.964,8.457,1.214,12.329,2.934,6.292,2.792,10.386,8.97,14.123,14.837,1.936,3.035,4.977,7.473,6.7,11.937v-.465a17.123,17.123,0,0,1,1.349,6.2,9.442,9.442,0,0,1-.29,2.7,7.727,7.727,0,0,1-4.195,4.809l-.317.155a13.494,13.494,0,0,1-1.308.587c-.067.371-.142.749-.223,1.113-.034.155-.074.317-.115.472-.088.378-.189.749-.3,1.12a25.952,25.952,0,0,1-8.093,12.369,27.2,27.2,0,0,1-9.051,5.126c-.236.081-.486.142-.722.216a5.814,5.814,0,0,1-.85,1.571,4.541,4.541,0,0,1-.917.884,5.559,5.559,0,0,1-.674.391.9.9,0,0,1-.182.088c-2.428,1.093-5.753.236-8.093-1.4-.121-.081-.236-.175-.351-.263a7.741,7.741,0,0,1-.128,1.207c-.067.418-.115.674-.189,1.025s-.1.519-.148.769-.081.418-.121.614l-.081.344a52.984,52.984,0,0,1-7.513,18.277,26.058,26.058,0,0,1-1.706,2.3l-1.673,2.549v.344A29.03,29.03,0,0,1,203.609,424a46.785,46.785,0,0,1-3,4.512l.378.223c3.777,2.151,11.223,5.975,15.93,5.652,0,0,17.805,2.3,19.869,1.147.283-.162.56.061.816.54,2.88-1.754,9.5-5.47,14.73-5.962,3.655-.351,6.63.87,7.183,5.4S257.341,442.949,253.524,444.587Z" transform="translate(-46.247 -149.633)"/><path class="p" d="M169.55,639.33a14.783,14.783,0,0,1,.971,12.969c-1.639,4.107-1.821,9.226-1.652,12.983-2.124-1.227-4.235-2.482-6.333-3.743q-3.871-2.334-7.709-4.721-5.058-3.156-10.116-6.468l-1.578-1.052-.607-.411a1.266,1.266,0,0,0-.2-.27,122.476,122.476,0,0,1-9.3-14.244c-.567-1.052-1.059-2.023-1.45-2.914v-.047c-.674-1.5-.991-2.7-.789-3.244a6.65,6.65,0,0,1,3.271-4.047c3.885-2.023,10.116-.155,16.281,2.819a112.58,112.58,0,0,1,15.2,9.26l.546.4.054.04c2.023,1.436,3.2,2.387,3.2,2.387A3.22,3.22,0,0,1,169.55,639.33Z" transform="translate(-59.735 -251.634)"/><path class="q" d="M168.047,638a14.784,14.784,0,0,1,.971,12.983c-1.639,4.107-1.821,9.226-1.652,12.99q-3.183-1.855-6.333-3.75-3.878-2.333-7.709-4.721c-3.372-2.111-6.744-4.269-10.083-6.474l-1.578-1.052-.607-.411a1.462,1.462,0,0,0-.2-.27,121.242,121.242,0,0,1-9.3-14.244c-.567-1.052-1.059-2.023-1.45-2.914V630.1c-.674-1.5-.991-2.7-.789-3.251a6.67,6.67,0,0,1,3.271-4.047c3.885-2.023,10.116-.155,16.281,2.819a112.58,112.58,0,0,1,15.2,9.26l.546.4.054.04c2.023,1.436,3.2,2.387,3.2,2.387S167.925,637.808,168.047,638Z" transform="translate(-59.257 -251.204)"/><path class="p" d="M201.473,655.827a16.469,16.469,0,0,1-.951,3.372,26.667,26.667,0,0,0-1.531,6.07h0a53.63,53.63,0,0,0,.054,13.266q-11.189-5.847-22.061-12.214c-2.124-1.227-4.235-2.482-6.333-3.743-.472-3.588-1.147-6.744-1.909-7.52a134.291,134.291,0,0,1-10.238-15.627c-.459-.809-.857-1.592-1.227-2.334v-.034c-.142-.3-.277-.58-.4-.863-.91-1.956-1.4-3.48-1.153-4.215a7.783,7.783,0,0,1,2.779-4.006c5.982-4.37,18.419,1.544,27.969,7.419l.236.142c1.807,1.126,3.521,2.239,5.058,3.278l.9.607c3.952,2.7,6.576,4.8,6.576,4.8a14.357,14.357,0,0,1,1.558,3.224,17.08,17.08,0,0,1,.56,1.956A16.3,16.3,0,0,1,201.473,655.827Z" transform="translate(-67.851 -252.674)"/><path class="d" d="M133.06,634.36c4.9,1.713,12.14,3.986,16.078,4.047a7.613,7.613,0,0,0,1.221-.061h0c2.772-.378,11.317.229,19.161.937,3.143.276,6.171.567,8.673.823l6.286.674v-2.428c-1.747-1.2-3.777-2.536-5.948-3.885-9.584-5.922-22.175-11.971-28.2-7.567-8.491-4.1-17.11-6.07-19.559,1.227C130.484,629.079,131.516,631.494,133.06,634.36Z" transform="translate(-59.732 -251.621)"/><path class="r" d="M99.254,552.176c.135,3.635,1.5,13.07,11.256,22.6,12.45,12.14,7.142,29.594,7.142,29.594s14.838,5.827,21.238,5.982a7.62,7.62,0,0,0,1.221-.061c3.838-.533,19.093.877,27.861,1.76l6.286.674V561.119l-68.752-16.7-6.225,6.2a12.139,12.139,0,0,0-.027,1.551Z" transform="translate(-49.483 -225.961)"/><path class="s" d="M135.46,630.91" transform="translate(-61.275 -254.12)"/><g class="k" transform="translate(49.757 318.492)"><path d="M195.566,643.844l1.126.115v.553l-6.286-.674c-6.292-.634-15.91-1.538-22.256-1.8C172.541,641.645,187.075,642.987,195.566,643.844Z" transform="translate(-121.675 -576.212)"/><path d="M99.28,550.675l6.225-6.2,4.155,1-5.186,5.2a12.138,12.138,0,0,0,0,1.551c.135,3.635,1.5,13.064,11.256,22.6,12.45,12.14,7.142,29.587,7.142,29.587s12.275,4.822,19.309,5.814a16.689,16.689,0,0,0-2.023.115,7.613,7.613,0,0,1-1.221.061c-6.4-.162-21.238-5.989-21.238-5.989s5.308-17.448-7.142-29.587c-9.806-9.536-11.169-18.965-11.3-22.58A12.141,12.141,0,0,1,99.28,550.675Z" transform="translate(-99.24 -544.47)"/></g><path class="p" d="M303,498.569s20.793-14.419,22.31-1.443S303,508.281,303,508.281Z" transform="translate(-115.821 -208.801)"/><path class="t" d="M242.518,487.7s11.243,7.419,17.468,6.98c0,0,17,2.28,18.972,1.14s3.19,16.47,3.19,16.47l-27.928-1.976-17.913-2.731s-8.956-5.463-8.956-10.17S242.518,487.7,242.518,487.7Z" transform="translate(-91.192 -207.495)"/><path class="i" d="M242.518,487.7s11.243,7.419,17.468,6.98c0,0,17,2.28,18.972,1.14s3.19,16.47,3.19,16.47l-27.928-1.976-17.913-2.731s-8.956-5.463-8.956-10.17S242.518,487.7,242.518,487.7Z" transform="translate(-91.192 -207.495)"/><path class="p" d="M271.77,543.329s25.284-1.045,19.619,10.73-24.819-2.522-24.819-2.522Z" transform="translate(-103.96 -225.598)"/><path class="r" d="M236.58,486.973s20.489-15.33,17.609-34-17.609,14.271-17.609,14.271Z" transform="translate(-94.197 -194.325)"/><path class="p" d="M245,368.146a25.925,25.925,0,0,0,16.186,24,23.235,23.235,0,0,0,3.332,1.106,26.3,26.3,0,0,0,3.676.674c.89.088,1.787.135,2.7.135a25.527,25.527,0,0,0,8.5-1.477A25.9,25.9,0,1,0,245,368.146Z" transform="translate(-96.938 -160.133)"/><path class="d" d="M99.254,552.176c2.32.425,5.186,1.207,5.186,2.408,0,2.023,32.373,12.956,32.373,12.956s-1.214,2.826,2.023,7.689,29.56,32.784,29.56,32.784l-.088.823-.337,3.217-1.605,15.384s10.116-3.642,13.354-3.237a4.406,4.406,0,0,0,3.231-1.511,15.512,15.512,0,0,0-2.111-5.173s-2.624-2.064-6.582-4.8v-51.6l-68.752-16.7-6.225,6.2a12.139,12.139,0,0,0-.027,1.551Z" transform="translate(-49.483 -225.961)"/><path class="i" d="M94.94,500.728s8.093.8,8.093,2.833,32.373,12.956,32.373,12.956-1.214,2.826,2.023,7.689,29.56,32.784,29.56,32.784l-2.023,19.424s10.116-3.642,13.354-3.237c1.45.182,3.048-1.16,4.37-2.7a28.241,28.241,0,0,0,2.92-4.161s-3.649-15.391,1.214-19.032-5.261-30.349-5.261-30.349-4.579-18.992-3.231-27.139a9.9,9.9,0,0,1,.391-1.6.484.484,0,0,1,.061-.182c2.887-7.783,33.937-73.075,33.937-73.075a46.478,46.478,0,0,0-.391-5.537c-.061-.513-.142-1.045-.243-1.578a27.11,27.11,0,0,0-.627-2.88c-.175-.621-.364-1.214-.587-1.781-.958-2.468-2.428-4.364-4.627-4.411,0,0-2.428-2.7-8.093-3.413-4.181-.546-10.116,0-18.21,3.413-19.019,8.093-23.47,8.5-23.47,8.5l-9.563,12.524-1.969,2.576a247.716,247.716,0,0,0-19.5,29.6c-3.183,5.719-7.689,12.389-13.091,16.4C101.421,476.449,94.94,500.728,94.94,500.728Z" transform="translate(-48.083 -177.367)"/><path class="d" d="M182.022,482.3S155,488.977,144.53,505.824Z" transform="translate(-64.228 -205.737)"/><path class="d" d="M185.839,526.18s-5.105,34.3-3.689,36.885S185.839,526.18,185.839,526.18Z" transform="translate(-76.395 -220.023)"/><path class="d" d="M190.138,548.123c1.969,2.576,9.948,22.465,9.948,22.465l-2.307,33.391L195.756,623.4s10.116-3.642,13.36-3.237c1.443.182,3.048-1.153,4.37-2.7-2.1-11.378-6.6-35.178-7.419-35.637-1.072-.607-6.535-19.734-6.825-25.048s-7.9-17.292-7.9-17.292S188.162,545.546,190.138,548.123Z" transform="translate(-78.866 -224.356)"/><path class="d" d="M201.717,472.734c.492,1.517,1.275,10.319,1.275,10.319.553,7.763,6.421,10.3,10.063,11.108a9.9,9.9,0,0,1,.391-1.6c2.428-6.872,34-73.257,34-73.257a43.588,43.588,0,0,0-1.261-10c-6.872-2.023-17.758,1.093-17.758,1.093-3.143-.411-13.4,19.99-13.4,19.99s-6.839,15.627-7.587,17.751,0,5.625-.3,6.839-3.5,2.266-3.952,3.945-.155,5-.459,5.6S201.191,471.216,201.717,472.734Z" transform="translate(-82.804 -181.752)"/><path class="i" d="M205.32,470.937c.5,1.517,1.275,10.319,1.275,10.319a11.459,11.459,0,0,0,8.093,10.541,17.063,17.063,0,0,0,4.856.971L224.426,497l22.533,16.625s8.4-15.512,6.124-15.613-15.424-11.128-15.424-11.128c-4.047-2.145-8.053-9.321-9.921-13a10.487,10.487,0,0,0,.243-1.349c.816-6.872,17.812-33.182,17.812-33.182s6.569-7.736,9.132-22.067c.074-.324.121-.674.182-1a11,11,0,0,0,.135-1.349c.3-5.51-3.7-7.513-8.464-7.992h0a34.272,34.272,0,0,0-7.419.229,53.426,53.426,0,0,0-7.284,1.43c-2.023-.263-7.055,8.2-10.346,14.2h0c-1.774,3.251-3.048,5.793-3.048,5.793s-6.872,15.633-7.641,17.758,0,5.618-.3,6.839-3.5,2.266-3.945,3.945-.162,5-.465,5.6S204.807,469.42,205.32,470.937Z" transform="translate(-83.979 -181.169)"/><path class="d" d="M166.61,414.918c4.276,4.4,11.25,4.411,16.82,2.178s10.3-6.306,15.471-9.442c3.372-2.023,6.906-3.73,10.211-5.841h0c.486-.317.958-.634,1.416-.958,3.817-2.7,7.115-6.158,11.061-8.633a17.212,17.212,0,0,1,8.889-2.846,10.069,10.069,0,0,1,4.242.89,5.482,5.482,0,0,1,.674.351,18.427,18.427,0,0,1,3.574,2.7c1.113,1,2.185,2.077,3.372,3.008.074-.324.121-.674.182-1a11,11,0,0,0,.135-1.349c.89.088,1.787.135,2.7.135a25.528,25.528,0,0,0,8.518-1.511,1.891,1.891,0,0,1,.061-.33c.971-5.1,2.7-10.5,6.825-13.367,2.381-1.666,6.185-2.34,9.476-3.608a25.9,25.9,0,1,0-48.8,2.806c-4.182-.546-10.116,0-18.21,3.413-19.019,8.093-23.47,8.5-23.47,8.5l-9.509,12.544c1.032,1.578,2.2,3.136,2.307,4.977C172.768,410.939,169.476,413.292,166.61,414.918Z" transform="translate(-71.417 -160.139)"/><path class="u" d="M260.8,367.838c-4.107,2.873-5.854,8.269-6.825,13.36a10.506,10.506,0,0,1-1.565,4.532c-2.178,2.826-6.562,2.023-9.408,0s-5.085-5.1-8.262-6.535c-4.222-1.9-9.179-.513-13.124,1.963s-7.25,5.935-11.067,8.626c-3.689,2.6-7.8,4.458-11.647,6.8-5.166,3.15-9.887,7.216-15.465,9.442s-12.544,2.226-16.814-2.172c2.866-1.592,6.158-3.945,5.935-7.351s-4.195-5.962-3.925-9.442,4.377-4.869,7.324-6.582c6.171-3.588,8.768-11.465,10.116-18.749,1.025-5.685,1.868-12.045,6.124-15.694,2.738-2.354,6.454-3.123,9.213-5.449,2.617-2.212,4.047-5.564,5.719-8.646,2.745-5.146,6.346-9.921,11.115-13s10.831-4.262,16.065-2.192c2.023.789,3.831,2.023,5.814,2.88,4.923,2.131,10.568,1.848,15.451,4.087,6.009,2.765,9.914,8.876,13.489,14.676,3.055,4.957,9.031,13.731,7.358,20.139C274.711,365.066,265.256,364.715,260.8,367.838Z" transform="translate(-71.42 -151.502)"/><g class="k" transform="translate(95.173 198.194)"><path d="M169.594,420.489a4.188,4.188,0,0,1,.142-.789c1.086,1.713,2.441,3.372,2.57,5.4a4.661,4.661,0,0,1-.115,1.383C170.983,424.536,169.425,422.721,169.594,420.489Z" transform="translate(-167.557 -383.55)"/><path d="M182.207,417.161c5.578-2.239,10.3-6.306,15.465-9.442,3.844-2.34,7.958-4.195,11.647-6.8,3.817-2.7,7.122-6.158,11.067-8.626s8.9-3.865,13.124-1.963c3.177,1.437,5.4,4.478,8.262,6.535s7.23,2.86,9.408.034a10.391,10.391,0,0,0,1.565-4.525c.971-5.1,2.7-10.494,6.825-13.367,4.465-3.116,13.914-2.765,15.627-9.341a10.117,10.117,0,0,0,.223-3.568c1.1,2.92,1.659,5.861,1,8.424-1.72,6.576-11.169,6.225-15.633,9.341-4.1,2.873-5.854,8.269-6.825,13.367a10.44,10.44,0,0,1-1.558,4.525c-2.185,2.826-6.569,2.023-9.442-.034s-5.085-5.1-8.262-6.535c-4.222-1.9-9.179-.506-13.124,1.963s-7.25,5.935-11.067,8.626c-3.689,2.61-7.8,4.458-11.647,6.8-5.166,3.156-9.887,7.216-15.465,9.442s-12.544,2.219-16.814-2.178a20.982,20.982,0,0,0,3.129-2.077A17.979,17.979,0,0,0,182.207,417.161Z" transform="translate(-166.58 -366.1)"/></g><path class="v" d="M672.735,328.085l-27.652-27.807a14.682,14.682,0,0,0-20.853-.142L450.591,472.305l-73.419-73.992a14.642,14.642,0,0,0-20.705-.148l-27.948,27.652a14.837,14.837,0,0,0-.142,20.853l111.5,112.374a14.838,14.838,0,0,0,20.853.148L672.58,348.932a14.682,14.682,0,0,0,.155-20.847Z" transform="translate(-122.712 -145.039)"/><g class="w" transform="translate(489.951 405.993)"><path class="i" d="M770.335,674.237s-20.624-1.241-18.21,13.212a3.527,3.527,0,0,0,1.834,3.709s0-1.072,2.111-.708a9.314,9.314,0,0,0,2.246.108,4.634,4.634,0,0,0,2.738-1.126h0s5.793-2.394,8.053-11.877c0,0,1.666-2.064,1.6-2.6l-3.48,1.49s1.194,2.509.256,4.593c0,0-.115-4.505-.782-4.4-.135,0-1.807.87-1.807.87s2.023,4.37.5,7.554c0,0,.587-5.4-1.14-7.237l-2.448,1.43s2.387,4.519.769,8.2c0,0,.418-5.652-1.288-7.85l-2.219,1.727s2.246,4.451.877,7.513c0,0-.175-6.582-1.349-7.082a13.468,13.468,0,0,0-2.239,2.421s1.538,3.231.587,4.937c0,0-.587-4.391-1.066-4.4,0,0-1.936,2.9-2.138,4.89a10.535,10.535,0,0,1,1.666-5.173,5.84,5.84,0,0,0-2.961,1.538s.3-2.023,3.44-2.239a13.593,13.593,0,0,1,2.023-2.334,12.674,12.674,0,0,0-5.018.58s1.666-1.942,5.584-1.059l2.192-1.787s-4.107-.567-5.854.054c0,0,2.023-1.713,6.448-.465l2.388-1.423a21.745,21.745,0,0,0-5.6-.485s2.205-1.187,6.3.1l1.706-.769s-2.57-.506-3.325-.58-.789-.29-.789-.29a8.924,8.924,0,0,1,4.822.539S770.4,674.466,770.335,674.237Z" transform="translate(-751.928 -674.21)"/></g><g class="w" transform="translate(467.585 305.064)"><path class="i" d="M722.532,524.58s-10.474,17.812,3.514,22.209a3.534,3.534,0,0,0,4.141.054s-.937-.519.324-2.205a9.647,9.647,0,0,0,1.12-1.949,4.721,4.721,0,0,0,.236-2.954h0s.492-6.252-6.926-12.565c0,0-1.086-2.428-1.585-2.61l-.256,3.777a6.243,6.243,0,0,1,4.208,1.862s-4.047-1.942-4.276-1.3c-.04.135-.047,2.023-.047,2.023s4.829.162,6.96,2.981c0,0-4.532-2.967-6.967-2.266l.162,2.833s5.112-.081,7.662,3.035c0,0-4.849-2.941-7.581-2.421l.533,2.765s4.991,0,7.088,2.624c0,0-5.942-2.826-6.92-2.023a15.457,15.457,0,0,0,1.133,3.1s3.581.094,4.667,1.72c0,0-4.175-1.47-4.411-1.052,0,0,1.713,3.042,3.372,4.128a10.554,10.554,0,0,1-3.851-3.837,5.814,5.814,0,0,0,0,3.372s-1.693-1.2-.425-4.047a13.422,13.422,0,0,1-1.167-2.866,12.793,12.793,0,0,0-1.76,4.721s-.971-2.367,1.592-5.463l-.594-2.765s-2.367,3.413-2.61,5.247c0,0-.614-2.57,2.516-5.955l-.189-2.772a21.492,21.492,0,0,0-2.967,4.761s-.061-2.5,2.94-5.564l.094-1.868s-1.619,2.064-2.023,2.7-.614.573-.614.573a8.869,8.869,0,0,1,2.664-4.047S722.761,524.627,722.532,524.58Z" transform="translate(-718.766 -524.56)"/></g><g class="w" transform="translate(402.08 162.962)"><path class="i" d="M625.4,313.873s-10.467,17.819,3.514,22.209a3.52,3.52,0,0,0,4.141.054s-.937-.519.33-2.205a9.6,9.6,0,0,0,1.113-1.949,4.674,4.674,0,0,0,.236-2.954h0s.5-6.252-6.926-12.565c0,0-1.086-2.421-1.585-2.6l-.256,3.77s2.779.081,4.208,1.861c0,0-4.047-1.942-4.269-1.3-.047.135-.047,2.023-.047,2.023s4.822.162,6.953,2.981c0,0-4.532-2.967-6.967-2.266l.169,2.833s5.105-.081,7.655,3.035c0,0-4.849-2.934-7.581-2.421l.533,2.765s4.991,0,7.1,2.63c0,0-5.948-2.833-6.926-2.023a15.119,15.119,0,0,0,1.14,3.089s3.575.094,4.66,1.72c0,0-4.175-1.47-4.4-1.052,0,0,1.706,3.048,3.372,4.128A10.563,10.563,0,0,1,627.7,331.8a5.854,5.854,0,0,0,0,3.332s-1.693-1.2-.425-4.08a13.423,13.423,0,0,1-1.167-2.866,12.793,12.793,0,0,0-1.76,4.721s-.971-2.367,1.6-5.463l-.6-2.765s-2.367,3.413-2.6,5.247c0,0-.621-2.57,2.509-5.955l-.189-2.772a21.493,21.493,0,0,0-2.967,4.761s-.061-2.5,2.94-5.557l.094-1.875s-1.619,2.064-2.023,2.7-.614.573-.614.573a8.916,8.916,0,0,1,2.7-4.047S625.633,313.954,625.4,313.873Z" transform="translate(-621.641 -313.86)"/></g><g class="w" transform="translate(158.335 28.028)"><path class="i" d="M282.237,113.79s-38.982,28.326-13.178,50.764c0,0,2.92,5.315,8.808,3.972,0,0-1.524-1.983,2.758-4.411a21.965,21.965,0,0,0,4.195-3.129,10.858,10.858,0,0,0,3.258-6.07h0s6.893-12.909-3.1-33.317c0,0-.061-6.2-.971-7.055l-4.047,7.837s5.861,2.758,7.27,7.9c0,0-6.886-7.952-7.931-6.744-.209.236-1.969,4.249-1.969,4.249s10.177,4.842,12.106,12.855c0,0-6.933-10.575-12.814-11.344l-2.286,6.212s11,4.593,13.549,13.63c0,0-7.635-10.791-13.961-12.241l-1.43,6.414s10.643,4.687,12.713,12.221c0,0-10.116-11.587-12.942-10.73,0,0-.958,5.962-.452,7.668,0,0,7.567,3.541,8.376,8.026,0,0-7.56-7.028-8.451-6.353,0,0,.823,8.093,3.413,11.985,0,0-4.242-5.456-4.674-11.789,0,0-2.893,3.372-3.055,7.156,0,0-2.509-4.148,2.88-9.125,0,0-.384-6.34.189-7.216,0,0-6.016,4.161-8.181,8.478,0,0,.128-5.962,8.5-10.191l1.295-6.468s-8.235,5.078-10.454,8.768c0,0,1.072-6.07,10.912-10.4l2.185-6.1s-7.419,3.838-10.791,7.419c0,0,2.205-5.4,11.465-9.152l1.936-3.912s-5.4,2.9-6.845,3.871-1.855.674-1.855.674a20.746,20.746,0,0,1,9.483-6.185S282.689,114.107,282.237,113.79Z" transform="translate(-260.232 -113.79)"/></g><g class="w" transform="translate(84.236 115.633)"><path class="i" d="M208.6,249.549s-50.427-21.2-57.037,17.029c0,0-3.446,5.962,1.349,10.885,0,0,1.032-2.644,5.908.088a25.07,25.07,0,0,0,5.5,2.239,12.383,12.383,0,0,0,7.837-.418h0s16.578-.9,30.532-22.593c0,0,5.975-3.7,6.279-5.085l-10,.674s.769,7.318-3.372,11.708c0,0,3.676-11.357,1.909-11.674-.357-.067-5.281.58-5.281.58s1.275,12.727-5.4,19.309c0,0,6.191-12.942,3.494-19.08l-7.372,1.423s2.023,13.387-5.274,21.17c0,0,6-13.758,3.682-20.746l-7.068,2.374s1.706,13.091-4.4,19.559c0,0,5.328-16.6,2.819-18.884,0,0-6.353,2.576-7.715,4.047,0,0,1.012,9.442-2.873,12.848,0,0,2.387-11.465,1.207-11.937,0,0-7.385,5.557-9.638,10.353,0,0,2.812-7.324,8.707-11.465,0,0-4.95-.843-8.768,1.234,0,0,2.556-4.863,10.555-2.556,0,0,5.928-4.107,7.115-4.047,0,0-7.567-3.372-13.037-2.954,0,0,5.861-3.372,14.885,2.259l7.034-2.549s-9.773-5.011-14.676-4.991c0,0,6.515-2.522,16.51,4.492l7.216-1.49s-8.093-4.957-13.556-6.1c0,0,6.549-1.039,15.633,5.766l4.937-.411s-5.975-3.521-7.783-4.377-1.727-1.41-1.727-1.41a23.538,23.538,0,0,1,11.58,5.571S208.551,250.176,208.6,249.549Z" transform="translate(-150.363 -243.685)"/></g><g class="w" transform="translate(63.299 40.617)"><path class="i" d="M168.3,159.8s-17.879-41.322-43.582-22.371c0,0-5.443,1.578-5.4,7.216,0,0,2.118-.985,3.453,3.419a20.947,20.947,0,0,0,2.023,4.458,10.157,10.157,0,0,0,4.9,4.215h0s10.359,8.916,31.024,3.972c0,0,5.658,1.207,6.63.56l-6.319-5.308s-3.709,4.788-8.687,5.018c0,0,8.653-4.654,7.783-5.847-.175-.243-3.467-2.657-3.467-2.657s-6.495,8.282-14.163,8.41c0,0,11.054-4.168,12.942-9.341l-5.193-3.372s-6.522,9.125-15.283,9.6c0,0,11.4-4.755,14.008-10.231l-5.551-2.583s-6.448,8.768-13.738,9.1c0,0,12.619-6.825,12.423-9.611,0,0-5.24-2.091-6.9-1.969,0,0-4.768,6.171-9.024,6,0,0,7.952-5.456,7.513-6.407,0,0-7.554-.9-11.62.674,0,0,5.841-2.752,11.7-1.848,0,0-2.462-3.325-5.9-4.249,0,0,4.3-1.437,7.729,4.485,0,0,5.861.944,6.542,1.646,0,0-2.563-6.333-6.07-9.186,0,0,5.4,1.349,7.56,9.826l5.632,2.5s-2.947-8.552-5.874-11.324c0,0,5.308,2.212,7.25,12.072l5.119,3.231s-1.983-7.554-4.566-11.351c0,0,4.478,3.116,6,12.335l3.17,2.563s-1.551-5.49-2.138-7.028-.216-1.821-.216-1.821a19.39,19.39,0,0,1,3.7,9.9S167.919,160.158,168.3,159.8Z" transform="translate(-119.32 -132.456)"/></g><g class="w" transform="translate(440.104 74.212)"><path class="i" d="M698.658,197.518s-4.215-20.233-17.535-14.089a3.521,3.521,0,0,0-3.1,2.745s1.045-.25,1.241,1.855a9.666,9.666,0,0,0,.479,2.192,4.722,4.722,0,0,0,1.814,2.347h0s3.831,4.964,13.563,4.654c0,0,2.435,1.066,2.934.863l-2.354-2.967s-2.111,1.807-4.364,1.45c0,0,4.316-1.288,4.047-1.909-.061-.128-1.315-1.517-1.315-1.517s-3.682,3.123-7.156,2.468c0,0,5.348-.85,6.684-3l-2.023-1.99s-3.736,3.494-7.716,2.893c0,0,5.564-1.079,7.243-3.3l-2.253-1.686s-3.709,3.332-7.021,2.812c0,0,6.306-1.9,6.474-3.17a13.436,13.436,0,0,0-2.92-1.524s-2.7,2.334-4.606,1.861c0,0,4.047-1.713,3.972-2.185,0,0-3.311-1.106-5.288-.776a10.6,10.6,0,0,1,5.429.25,5.787,5.787,0,0,0-2.259-2.455s2.064-.25,3.062,2.7a13.221,13.221,0,0,1,2.785,1.349,12.976,12.976,0,0,0-1.875-4.721s2.307,1.1,2.489,5.119l2.3,1.646s-.533-4.114-1.592-5.638c0,0,2.178,1.49,2.138,6.07l2.023,1.929a21.629,21.629,0,0,0-1-5.524s1.72,1.814,1.551,6.07l1.187,1.45s-.182-2.61-.3-3.372.067-.843.067-.843a8.915,8.915,0,0,1,.749,4.8S698.455,197.64,698.658,197.518Z" transform="translate(-678.02 -182.268)"/></g><g class="w" transform="translate(367.515 449.277)"><path class="i" d="M591.034,753.638s-4.208-20.233-17.535-14.089a3.527,3.527,0,0,0-3.109,2.745s1.045-.25,1.241,1.855a9.313,9.313,0,0,0,.486,2.192,4.721,4.721,0,0,0,1.808,2.347h0s3.831,4.964,13.57,4.654c0,0,2.435,1.066,2.927.863l-2.347-2.968a6.233,6.233,0,0,1-4.37,1.45s4.316-1.288,4.047-1.909c-.054-.128-1.315-1.518-1.315-1.518s-3.682,3.123-7.156,2.468c0,0,5.355-.85,6.684-3l-2.023-2.023s-3.7,3.507-7.688,2.887c0,0,5.564-1.079,7.243-3.3l-2.253-1.686s-3.7,3.332-7.014,2.812c0,0,6.306-1.9,6.474-3.17a13.6,13.6,0,0,0-2.92-1.524s-2.7,2.334-4.613,1.861c0,0,4.047-1.713,3.972-2.185,0,0-3.312-1.106-5.288-.776a10.616,10.616,0,0,1,5.436.25,5.834,5.834,0,0,0-2.259-2.455s2.057-.25,3.055,2.7a13.253,13.253,0,0,1,2.792,1.349A12.976,12.976,0,0,0,579,738.747s2.307,1.1,2.482,5.119l2.307,1.646s-.54-4.114-1.6-5.638c0,0,2.185,1.491,2.145,6.07l2.023,1.929a21.44,21.44,0,0,0-1.005-5.524s1.727,1.814,1.558,6.07l1.187,1.45s-.189-2.61-.31-3.372.067-.836.067-.836a8.883,8.883,0,0,1,.749,4.8S590.846,753.739,591.034,753.638Z" transform="translate(-570.39 -738.388)"/></g></g></svg>