<svg xmlns="http://www.w3.org/2000/svg" xmlns:xlink="http://www.w3.org/1999/xlink" width="757.427" height="647.975" viewBox="0 0 757.427 647.975"><defs><style>.a{fill:url(#a);}.ac,.ag,.b,.n{fill:#fff;}.c{fill:url(#b);}.d{fill:url(#c);}.e{fill:url(#d);}.ac,.f,.h,.i,.j,.v,.z{opacity:0.5;}.g,.j{fill:#47e6b1;}.h,.q,.r{fill:#4d8af0;}.i{fill:#f55f44;}.k{fill:url(#e);}.l{fill:#e0e0e0;}.m{fill:#dbdbdb;}.aa,.n,.o,.r,.w{opacity:0.3;}.o{fill:#3ad29f;}.p{fill:url(#f);}.s{fill:url(#g);}.t{fill:#f5f5f5;}.u,.v,.w{fill:#ff5252;}.x{fill:url(#h);}.aa,.y,.z{fill:#69f0ae;}.ab{fill:url(#i);}.ad{fill:url(#j);}.ae{fill:url(#k);}.af{fill:#795548;}.ag{opacity:0.2;}</style><linearGradient id="a" x1="0.579" y1="1.067" x2="0.579" y2="0.067" gradientUnits="objectBoundingBox"><stop offset="0" stop-color="gray" stop-opacity="0.251"/><stop offset="0.54" stop-color="gray" stop-opacity="0.122"/><stop offset="1" stop-color="gray" stop-opacity="0.102"/></linearGradient><linearGradient id="b" x1="0.337" y1="0.978" x2="0.337" y2="-0.022" xlink:href="#a"/><linearGradient id="c" x1="0.5" y1="1" x2="0.5" y2="0" xlink:href="#a"/><linearGradient id="d" x1="0.5" y1="1" x2="0.5" y2="0" xlink:href="#a"/><linearGradient id="e" x1="0.224" y1="1.369" x2="0.663" y2="-0.499" xlink:href="#a"/><linearGradient id="f" x1="-0.804" y1="4.22" x2="-0.804" y2="0.949" xlink:href="#a"/><linearGradient id="g" x1="-2.856" y1="1.917" x2="-2.856" y2="0.917" xlink:href="#a"/><linearGradient id="h" x1="-2.72" y1="1.861" x2="-2.72" y2="0.861" xlink:href="#a"/><linearGradient id="i" x1="-2.552" y1="1.863" x2="-2.552" y2="0.863" xlink:href="#a"/><linearGradient id="j" x1="0.5" y1="1" x2="0.5" y2="0" xlink:href="#a"/><linearGradient id="k" x1="0.5" y1="1" x2="0.5" y2="0" xlink:href="#a"/></defs><g transform="translate(0 0.649)"><rect class="a" width="181.833" height="263.213" rx="13.44" transform="translate(166.46 57.153) rotate(-12.75)"/><rect class="b" width="177.314" height="257.492" rx="13.44" transform="translate(168.466 59.959) rotate(-12.75)"/><rect class="c" width="310.507" height="376.848" transform="translate(28.962 294.736) rotate(-20.67)"/><rect class="b" width="304.863" height="369.788" transform="translate(32.598 296.387) rotate(-20.67)"/><rect class="b" width="136.91" height="5.644" transform="translate(185.055 534.541) rotate(-20.67)"/><rect class="b" width="224.412" height="5.644" transform="translate(197.012 566.231) rotate(-20.67)"/><rect class="b" width="57.866" height="5.644" transform="translate(340.881 475.757) rotate(-20.67)"/><rect class="b" width="57.866" height="5.644" transform="translate(191.026 550.394) rotate(-20.67)"/><rect class="b" width="57.866" height="5.644" transform="translate(268.95 520.997) rotate(-20.67)"/><rect class="b" width="57.866" height="5.644" transform="translate(346.867 491.603) rotate(-20.67)"/><rect class="b" width="169.368" height="62.103" transform="translate(127.198 356.129) rotate(-20.67)"/><path class="d" d="M742.028,683.065a20.524,20.524,0,0,0,.307-3.5,20.113,20.113,0,1,0-32.458,15.867,19.775,19.775,0,0,0-.315,3.5,20.113,20.113,0,1,0,32.467-15.867Z" transform="translate(-236.771 -157.27)"/><circle class="b" cx="18.28" cy="18.28" r="18.28" transform="translate(474.291 522.504)"/><circle class="e" cx="12.192" cy="12.192" r="12.192" transform="translate(506.102 571.247)"/><circle class="b" cx="10.837" cy="10.837" r="10.837" transform="translate(507.457 572.602)"/><circle class="b" cx="18.28" cy="18.28" r="18.28" transform="translate(467.513 504.898)"/><g class="f" transform="translate(563.567 -0.096)"><rect class="g" width="2.558" height="14.494" transform="translate(5.968)"/><rect class="g" width="2.558" height="14.494" transform="translate(14.494 5.968) rotate(90)"/></g><g class="f" transform="translate(142.384 115.005)"><rect class="g" width="2.558" height="14.494" transform="translate(5.968)"/><rect class="g" width="2.558" height="14.494" transform="translate(14.494 5.968) rotate(90)"/></g><g class="f" transform="translate(335.923 611.216)"><rect class="g" width="2.558" height="14.494" transform="translate(5.968)"/><rect class="g" width="2.558" height="14.494" transform="translate(14.494 5.968) rotate(90)"/></g><path class="h" d="M944.4,658.286a3.129,3.129,0,0,1-1.748-3.785,1.609,1.609,0,0,0,.068-.341h0a1.569,1.569,0,0,0-2.822-1.049h0a1.616,1.616,0,0,0-.171.315,3.138,3.138,0,0,1-3.794,1.705,1.505,1.505,0,0,0-.341-.068h0a1.569,1.569,0,0,0-1.04,2.822h0a1.383,1.383,0,0,0,.307.179,3.138,3.138,0,0,1,1.748,3.786.983.983,0,0,0-.068.349h0a1.569,1.569,0,0,0,2.822,1.04h0a2.168,2.168,0,0,0,.17-.307,3.129,3.129,0,0,1,3.786-1.705,1.579,1.579,0,0,0,.35.068h0a1.569,1.569,0,0,0,1.04-2.822h0a2.224,2.224,0,0,0-.307-.188Z" transform="translate(-270.941 -156.245)"/><path class="h" d="M868.4,759.286a3.129,3.129,0,0,1-1.748-3.786,1.608,1.608,0,0,0,.068-.341h0a1.569,1.569,0,0,0-2.822-1.049h0a1.616,1.616,0,0,0-.171.315,3.138,3.138,0,0,1-3.794,1.705,1.509,1.509,0,0,0-.341-.068h0a1.569,1.569,0,0,0-1.04,2.822h0a1.381,1.381,0,0,0,.307.179,3.138,3.138,0,0,1,1.748,3.786.982.982,0,0,0-.068.35h0a1.569,1.569,0,0,0,2.822,1.04h0a2.165,2.165,0,0,0,.171-.307,3.129,3.129,0,0,1,3.786-1.705,1.583,1.583,0,0,0,.35.068h0a1.569,1.569,0,0,0,1.04-2.822h0a2.217,2.217,0,0,0-.307-.188Z" transform="translate(-259.738 -171.133)"/><path class="h" d="M251.4,711.286a3.129,3.129,0,0,1-1.748-3.786,1.612,1.612,0,0,0,.068-.341h0a1.569,1.569,0,0,0-2.822-1.049h0a1.619,1.619,0,0,0-.171.315,3.138,3.138,0,0,1-3.794,1.705,1.5,1.5,0,0,0-.341-.068h0a1.569,1.569,0,0,0-1.04,2.822h0a1.381,1.381,0,0,0,.307.179,3.138,3.138,0,0,1,1.705,3.786.981.981,0,0,0-.068.35h0a1.569,1.569,0,0,0,2.822,1.04h0a2.156,2.156,0,0,0,.171-.307,3.129,3.129,0,0,1,3.786-1.705,1.583,1.583,0,0,0,.35.068h0a1.569,1.569,0,0,0,1.04-2.822h0A2.221,2.221,0,0,0,251.4,711.286Z" transform="translate(-168.791 -164.057)"/><circle class="i" cx="5.116" cy="5.116" r="5.116" transform="translate(415.215 42.534)"/><circle class="h" cx="5.116" cy="5.116" r="5.116" transform="translate(0 57.028)"/><circle class="j" cx="5.116" cy="5.116" r="5.116" transform="translate(713.624 345.206)"/><circle class="i" cx="5.116" cy="5.116" r="5.116" transform="translate(45.188 251.42)"/><g class="f" transform="translate(574.191 -0.649)"><path class="k" d="M5.354,0H249.2a5.363,5.363,0,0,1,5.363,5.363V135.742a5.354,5.354,0,0,1-5.354,5.354H5.363A5.363,5.363,0,0,1,0,135.734V5.363A5.363,5.363,0,0,1,5.363,0Z" transform="matrix(0.174, -0.985, 0.985, 0.174, 0, 250.678)"/></g><rect class="b" width="137.286" height="247.799" rx="13.64" transform="matrix(0.985, 0.174, -0.174, 0.985, 619.763, 2.968)"/><path class="l" d="M977.175,99.286a11.084,11.084,0,0,1-12.448,7.409l-46.7-8.245A11.135,11.135,0,0,1,908.9,87.23l-24.725-4.374a5.209,5.209,0,0,0-6.036,4.263L838.986,308.59a5.218,5.218,0,0,0,4.22,6.045l118.127,20.872a5.209,5.209,0,0,0,6.045-4.263l39.134-221.513a5.209,5.209,0,0,0-4.263-6.045Z" transform="translate(-256.935 -72.269)"/><rect class="m" width="30.591" height="1.91" rx="0.955" transform="matrix(0.987, 0.162, -0.162, 0.987, 669.43, 21.292)"/><circle class="m" cx="1.151" cy="1.151" r="1.151" transform="translate(704.765 26.855)"/><rect class="b" width="37.514" height="32.399" transform="matrix(0.988, 0.153, -0.153, 0.988, 628.107, 53.338)"/><rect class="n" width="37.514" height="32.399" transform="matrix(0.988, 0.153, -0.153, 0.988, 620.931, 99.67)"/><rect class="b" width="37.514" height="32.399" transform="matrix(0.988, 0.153, -0.153, 0.988, 613.764, 146.012)"/><rect class="o" width="37.514" height="32.399" transform="matrix(0.988, 0.153, -0.153, 0.988, 606.589, 192.352)"/><rect class="b" width="49.451" height="3.41" transform="matrix(0.988, 0.153, -0.153, 0.988, 673.281, 68.09)"/><rect class="b" width="49.451" height="3.41" transform="matrix(0.988, 0.153, -0.153, 0.988, 671.718, 78.201)"/><rect class="b" width="49.451" height="3.41" transform="matrix(0.988, 0.153, -0.153, 0.988, 666.232, 113.59)"/><rect class="b" width="49.515" height="3.415" transform="matrix(0.989, 0.15, -0.15, 0.989, 666.641, 121.649)"/><rect class="b" width="49.451" height="3.41" transform="matrix(0.988, 0.153, -0.153, 0.988, 659.192, 159.092)"/><rect class="b" width="49.451" height="3.41" transform="matrix(0.988, 0.153, -0.153, 0.988, 657.63, 169.203)"/><rect class="b" width="49.451" height="3.41" transform="matrix(0.988, 0.153, -0.153, 0.988, 652.145, 204.584)"/><rect class="b" width="49.451" height="3.41" transform="matrix(0.988, 0.153, -0.153, 0.988, 650.582, 214.694)"/><g class="f" transform="translate(480.003 153.771)"><rect class="p" width="173.895" height="53.168" transform="translate(0 173.887) rotate(-89.44)"/></g><rect class="l" width="50.55" height="171.568" transform="translate(483.48 154.919) rotate(0.56)"/><rect class="q" width="35.732" height="35.732" transform="translate(490.913 157.752) rotate(0.56)"/><rect class="h" width="35.732" height="35.732" transform="translate(490.483 200.896) rotate(0.56)"/><rect class="r" width="35.732" height="35.732" transform="translate(490.061 244.031) rotate(0.56)"/><g class="f" transform="translate(427.558 160.329)"><rect class="s" width="53.131" height="173.126" transform="translate(0 16.482) rotate(-18.072)"/></g><rect class="t" width="50.551" height="170.921" transform="translate(429.829 180.618) rotate(-17.78)"/><rect class="u" width="35.732" height="35.732" transform="translate(437.755 180.976) rotate(-17.78)"/><rect class="v" width="35.732" height="35.732" transform="translate(450.943 222.061) rotate(-17.78)"/><rect class="w" width="35.732" height="35.732" transform="translate(464.11 263.14) rotate(-17.78)"/><g class="f" transform="translate(400.724 175.61)"><rect class="x" width="53.168" height="173.248" transform="translate(0 26.165) rotate(-29.48)"/></g><rect class="t" width="50.551" height="170.921" transform="translate(402.813 201.93) rotate(-29.48)"/><rect class="y" width="35.732" height="35.732" transform="translate(410.632 200.679) rotate(-29.48)"/><rect class="z" width="35.732" height="35.732" transform="translate(431.86 238.237) rotate(-29.48)"/><rect class="aa" width="35.732" height="35.732" transform="translate(453.094 275.796) rotate(-29.48)"/><g class="f" transform="translate(385.792 188.72)"><rect class="ab" width="53.168" height="173.248" transform="translate(0 31.76) rotate(-36.68)"/></g><rect class="b" width="50.55" height="170.92" transform="translate(387.88 220.379) rotate(-36.68)"/><rect class="b" width="35.732" height="35.732" transform="translate(395.46 218.158) rotate(-36.68)"/><rect class="ac" width="35.732" height="35.732" transform="translate(421.243 252.769) rotate(-36.68)"/><rect class="n" width="35.732" height="35.732" transform="translate(447.012 287.364) rotate(-36.68)"/><circle class="ad" cx="89.523" cy="89.523" r="89.523" transform="translate(503.203 341.745)"/><circle class="t" cx="85.26" cy="85.26" r="85.26" transform="translate(507.466 346.008)"/><g class="f" transform="translate(521.823 377.974)"><path class="ae" d="M841.615,513.8a53.287,53.287,0,0,0-54.8,47.592H771.464a3.1,3.1,0,0,0-3.1,3.1v5.116a3.1,3.1,0,0,0,3.1,3.1H786.81a53.287,53.287,0,1,0,54.8-58.923Z" transform="translate(-768.36 -513.773)"/></g><path class="b" d="M841.609,517.551a50.09,50.09,0,0,0-51.505,44.71H775.251a2.481,2.481,0,0,0-2.481,2.481v5.687a2.481,2.481,0,0,0,2.481,2.49H790.1A50.09,50.09,0,1,0,841.609,517.5Z" transform="translate(-247.187 -136.348)"/><circle class="af" cx="35.17" cy="35.17" r="35.17" transform="translate(557.556 396.098)"/><path class="ag" d="M872.77,556.28s10.027,15.586,7.162,27.709C879.932,583.989,891.4,564.934,872.77,556.28Z" transform="translate(-261.927 -142.065)"/><circle class="ag" cx="3.197" cy="3.197" r="3.197" transform="translate(611.909 447.253)"/></g></svg>