<svg xmlns="http://www.w3.org/2000/svg" width="301.637" height="295.539" viewBox="0 0 301.637 295.539"><defs><style>.a{fill:#3ea05b;}.b{fill:#2c7340;}.c{fill:#f07a97;}.d{fill:#e6486d;}.e{fill:#b5c9f5;}.f{fill:#3b91f7;}.g{fill:#3778c5;}</style></defs><g transform="translate(0 0.001)"><path class="a" d="M466.44,16.778A57.211,57.211,0,0,0,450.1,64.4a7.384,7.384,0,0,0,6.437,6.437A57.3,57.3,0,0,0,520.5,6.874,7.384,7.384,0,0,0,514.061.437,57.218,57.218,0,0,0,466.44,16.778Zm0,0" transform="translate(-308.375 0)"/><path class="b" d="M457.772,74.289A7.385,7.385,0,0,0,462.1,76.4a57.3,57.3,0,0,0,63.962-63.962,7.385,7.385,0,0,0-2.108-4.326Zm0,0" transform="translate(-313.938 -5.561)"/><path class="a" d="M273.615,116.887a57.2,57.2,0,0,0,47.621,16.339,7.377,7.377,0,0,0,6.435-6.434,57.3,57.3,0,0,0-63.96-63.962,7.384,7.384,0,0,0-6.437,6.437,57.211,57.211,0,0,0,16.342,47.621Zm0,0" transform="translate(-176.137 -42.788)"/><path class="b" d="M331.12,131.12a7.4,7.4,0,0,0,2.11-4.326,57.3,57.3,0,0,0-63.962-63.962,7.391,7.391,0,0,0-4.329,2.108Zm0,0" transform="translate(-181.694 -42.789)"/><path class="c" d="M499.947,206.093a19.312,19.312,0,1,0-19.31,19.17A19.242,19.242,0,0,0,499.947,206.093Zm0,0" transform="translate(-316.374 -128.19)"/><path class="d" d="M542.1,206.093a19.242,19.242,0,0,1-19.31,19.17V186.921a19.242,19.242,0,0,1,19.31,19.172Zm0,0" transform="translate(-358.526 -128.19)"/><path class="e" d="M76.652,240.176H8.837a8.837,8.837,0,0,0,0,17.674H76.652a8.837,8.837,0,0,0,0-17.674Zm0,0" transform="translate(0 -164.712)"/><path class="e" d="M764.2,240.176H696.208a8.837,8.837,0,1,0,0,17.674H764.2a8.837,8.837,0,1,0,0-17.674Zm0,0" transform="translate(-471.396 -164.712)"/><path class="f" d="M414.178,446.62a8.84,8.84,0,0,0-8.071-5.233h-.06a8.842,8.842,0,0,0-8.057,5.344l-21.068,48.958a8.837,8.837,0,1,0,16.233,6.987l1.128-2.619h24.4l1.22,2.729a8.837,8.837,0,1,0,16.139-7.205Zm-12.289,35.762,4.368-10.151,4.534,10.151Zm0,0" transform="translate(-257.996 -302.701)"/><path class="g" d="M501.189,495.579l-21.865-48.958a8.836,8.836,0,0,0-8.068-5.233h-.06c.06,0,.209,30.844.209,30.844l4.534,10.151h-4.287v17.674h12.181l1.217,2.729a8.838,8.838,0,1,0,16.139-7.208Zm0,0" transform="translate(-323.144 -302.702)"/><path class="f" d="M234.037,440.771a8.838,8.838,0,0,0-8.837,8.837v21.572H206.734V449.608a8.837,8.837,0,0,0-17.674,0V498.76a8.837,8.837,0,1,0,17.674,0v-9.9H225.2v9.9a8.837,8.837,0,1,0,17.674,0V449.608A8.836,8.836,0,0,0,234.037,440.771Zm0,0" transform="translate(-129.657 -302.279)"/><path class="g" d="M627.281,439.614a8.838,8.838,0,0,0-8.837,8.837v23.966L595.33,442.993a8.837,8.837,0,0,0-15.787,5.459v49.52a8.837,8.837,0,1,0,17.674,0V474.005l23.117,29.424a8.836,8.836,0,0,0,15.785-5.459V448.451A8.836,8.836,0,0,0,627.281,439.614Zm0,0" transform="translate(-397.448 -301.486)"/><path class="g" d="M838.406,494.18l-13.684-31.256,9.594-6.667a8.837,8.837,0,0,0-10.068-14.526l-15.58,10.77a8.874,8.874,0,0,0-.748.58l-6,4.168V448.8a8.837,8.837,0,0,0-17.674,0v49.151a8.837,8.837,0,0,0,8.828,8.837h.009a8.837,8.837,0,0,0,8.837-8.819l.039-19.22,7.969-5.539,12.284,28.062a8.838,8.838,0,0,0,16.192-7.088Zm0,0" transform="translate(-537.833 -301.722)"/><path class="f" d="M251.976,727.373a8.837,8.837,0,0,0-12.372,1.772L227.642,745.1l-11.96-15.957a8.837,8.837,0,1,0-14.144,10.6L218.8,762.781v21.11a8.837,8.837,0,1,0,17.674,0V762.783l17.267-23.038a8.837,8.837,0,0,0-1.77-12.372Zm0,0" transform="translate(-137.003 -497.618)"/><path class="f" d="M415.043,724.451a28.191,28.191,0,0,0-19.975,7.979,25.351,25.351,0,0,0-7.631,18.1v15.412c0,14.429,12.312,26.281,27.443,26.421h.26a28.125,28.125,0,0,0,19.718-7.981,25.341,25.341,0,0,0,7.629-18.1v-15.41C442.488,736.443,430.176,724.589,415.043,724.451Zm9.771,41.831a7.742,7.742,0,0,1-2.4,5.546,10.353,10.353,0,0,1-7.274,2.861h-.1c-5.477-.051-9.932-3.974-9.932-8.747V750.53a7.732,7.732,0,0,1,2.4-5.544,10.344,10.344,0,0,1,7.272-2.863c.034,0,.069,0,.1,0,5.477.048,9.932,3.974,9.932,8.747Zm0,0" transform="translate(-265.702 -496.825)"/><path class="g" d="M474.72,724.453l-.265,17.672c.035,0,.069,0,.1,0,5.477.048,9.932,3.974,9.932,8.747v15.41a7.742,7.742,0,0,1-2.4,5.546,10.353,10.353,0,0,1-7.274,2.86h-.1l-.161,17.674h.258a28.121,28.121,0,0,0,19.718-7.981,25.352,25.352,0,0,0,7.631-18.1v-15.41c0-14.429-12.312-26.283-27.445-26.421Zm0,0" transform="translate(-325.379 -496.827)"/><path class="g" d="M634.979,724.047a8.838,8.838,0,0,0-8.837,8.837v32.888a7.742,7.742,0,0,1-2.4,5.546,10.44,10.44,0,0,1-7.376,2.861c-5.477-.051-9.932-3.974-9.932-8.747V732.544a8.837,8.837,0,1,0-17.674,0v32.888c0,14.429,12.312,26.283,27.445,26.421h.26a28.129,28.129,0,0,0,19.718-7.981,25.348,25.348,0,0,0,7.629-18.1V732.886A8.838,8.838,0,0,0,634.979,724.047Zm0,0" transform="translate(-403.772 -496.315)"/><path class="c" d="M388.538,258.771a25.941,25.941,0,1,0-25.94,25.754A25.846,25.846,0,0,0,388.538,258.771Zm0,0" transform="translate(-230.878 -159.804)"/><path class="d" d="M445.156,258.771a25.846,25.846,0,0,1-25.94,25.754V233.019a25.847,25.847,0,0,1,25.94,25.752Zm0,0" transform="translate(-287.496 -159.804)"/><path class="f" d="M46.886,439.841H10.954a8.837,8.837,0,1,0,0,17.674h9.129v40.607a8.837,8.837,0,0,0,17.674,0V457.515h9.129a8.837,8.837,0,1,0,0-17.674Zm0,0" transform="translate(-1.452 -301.641)"/></g></svg>